<?xml version="1.0" encoding="utf-8"?>
<!-- Generator: Adobe Illustrator 21.1.0, SVG Export Plug-In . SVG Version: 6.00 Build 0)  -->
<svg version="1.1" id="Layer_1" xmlns="http://www.w3.org/2000/svg" xmlns:xlink="http://www.w3.org/1999/xlink" x="0px" y="0px"
	 viewBox="0 0 149.1 47.3" style="enable-background:new 0 0 149.1 47.3;" xml:space="preserve">
<style type="text/css">
	.st0{fill:#3C3C3B;}
	.st1{fill:#E68022;}
	.st2{fill:#FFFFFF;}
	.st3{fill:#6EA092;}
	.st4{fill:#D2BC67;}
	.st5{clip-path:url(#SVGID_2_);}
	.st6{clip-path:url(#SVGID_4_);}
	.st7{clip-path:url(#SVGID_6_);fill-rule:evenodd;clip-rule:evenodd;fill:#7A1617;}
	.st8{clip-path:url(#SVGID_8_);}
	.st9{clip-path:url(#SVGID_10_);}
	.st10{clip-path:url(#SVGID_12_);fill:#684A4E;}
	.st11{clip-path:url(#SVGID_14_);}
	.st12{clip-path:url(#SVGID_16_);}
	.st13{clip-path:url(#SVGID_18_);fill:#2B544D;}
	.st14{clip-path:url(#SVGID_20_);}
	.st15{clip-path:url(#SVGID_22_);}
	.st16{clip-path:url(#SVGID_24_);fill-rule:evenodd;clip-rule:evenodd;fill:#6A5522;}
</style>
<path class="st0" d="M59.3,47.3l-0.8-3h-5.5l-0.9,3h-4.6l6.4-20.5h3.4l6.4,20.5H59.3z M55.9,34.6l-1.6,5.5h3.1L55.9,34.6z"/>
<path class="st0" d="M69.3,47.5c-2.1,0-3.6-0.8-4.9-2.3c-1.9-2.2-1.8-5-1.8-8.1c0-3.1-0.1-5.9,1.8-8.1c1.3-1.5,2.9-2.3,4.9-2.3
	c3.4,0,6.1,2.2,6.7,6.7h-4.4c-0.3-1.1-0.8-2.2-2.3-2.2c-0.8,0-1.4,0.4-1.7,0.9c-0.4,0.6-0.7,1.3-0.7,5.1c0,3.7,0.3,4.5,0.7,5.1
	c0.3,0.5,0.9,0.9,1.7,0.9c1.4,0,2-1,2.3-2.2H76C75.3,45.3,72.6,47.5,69.3,47.5"/>
<path class="st0" d="M86.3,47.3l-0.8-3h-5.4l-0.9,3h-4.6l6.4-20.5h3.4l6.4,20.5H86.3z M82.9,34.6l-1.6,5.5h3.1L82.9,34.6z"/>
<path class="st0" d="M101.8,45.3c-1.2,1.4-2.9,2-4.8,2h-6.6V26.8H97c1.8,0,3.6,0.6,4.8,2c2.1,2.4,1.8,5,1.8,8.2
	C103.6,40.3,103.8,42.9,101.8,45.3 M98.8,32.5c-0.4-0.7-1-1.1-2.1-1.1h-1.9v11.5h1.9c1.1,0,1.7-0.5,2.1-1.1c0.3-0.6,0.5-1.1,0.5-4.6
	C99.3,33.6,99.1,33,98.8,32.5"/>
<polygon class="st0" points="104.2,47.3 104.2,26.8 116.3,26.8 116.3,31.3 108.6,31.3 108.6,34.7 115.1,34.7 115.1,39.2 108.6,39.2 
	108.6,42.8 116.3,42.8 116.3,47.3 "/>
<polygon class="st0" points="129.1,47.3 129.1,37.5 126.6,42.6 123.8,42.6 121.3,37.5 121.3,47.3 116.9,47.3 116.9,26.8 121.2,26.8 
	125.2,35.9 129.2,26.8 133.5,26.8 133.5,47.3 "/>
<polygon class="st0" points="143.7,39 143.7,47.3 139.4,47.3 139.4,39 134,26.8 138.8,26.8 141.5,34.2 144.3,26.8 149.1,26.8 "/>
<g>
	<path class="st0" d="M50.4,11.2v9.9h-1.2V1h1.2v9.1h12.3V1H64v20.1h-1.2v-9.9H50.4z"/>
</g>
<g>
	<path class="st0" d="M87.2,11c0,1.5-0.2,2.8-0.6,4.1c-0.4,1.3-1,2.4-1.8,3.4c-0.8,0.9-1.7,1.7-2.9,2.2c-1.1,0.5-2.4,0.8-3.9,0.8
		c-1.4,0-2.7-0.3-3.9-0.8c-1.1-0.5-2.1-1.3-2.9-2.2c-0.8-0.9-1.4-2.1-1.8-3.4c-0.4-1.3-0.6-2.7-0.6-4.1c0-1.5,0.2-2.8,0.6-4.1
		c0.4-1.3,1-2.4,1.8-3.4C72,2.6,73,1.9,74.1,1.3c1.1-0.5,2.4-0.8,3.9-0.8c1.4,0,2.7,0.3,3.9,0.8c1.1,0.5,2.1,1.3,2.9,2.2
		c0.8,0.9,1.4,2.1,1.8,3.4C86.9,8.2,87.2,9.6,87.2,11z M70,11c0,1.3,0.2,2.5,0.5,3.7c0.4,1.1,0.9,2.1,1.6,3c0.7,0.9,1.5,1.5,2.5,2
		c1,0.5,2.1,0.8,3.4,0.8c1.3,0,2.4-0.3,3.4-0.8c1-0.5,1.8-1.2,2.5-2c0.7-0.9,1.2-1.9,1.6-3c0.4-1.1,0.5-2.4,0.5-3.7
		c0-1.3-0.2-2.5-0.5-3.7c-0.4-1.1-0.9-2.1-1.6-3c-0.7-0.9-1.5-1.5-2.5-2c-1-0.5-2.1-0.8-3.4-0.8c-1.3,0-2.4,0.3-3.4,0.8
		c-1,0.5-1.8,1.2-2.5,2c-0.7,0.9-1.2,1.9-1.6,3C70.2,8.5,70,9.7,70,11z"/>
</g>
<g>
	<path class="st0" d="M108.7,11.2v9.9h-1v-4.3h-0.1c-0.2,0.7-0.6,1.4-1.1,2c-0.5,0.6-1,1.1-1.7,1.5c-0.6,0.4-1.4,0.7-2.1,0.9
		c-0.8,0.2-1.6,0.3-2.4,0.3c-1.5,0-2.8-0.3-3.9-0.8c-1.1-0.5-2.1-1.3-2.9-2.2c-0.8-0.9-1.4-2-1.8-3.3c-0.4-1.3-0.6-2.6-0.6-4.1
		c0-1.4,0.2-2.8,0.6-4.1c0.4-1.3,1-2.4,1.8-3.4c0.8-1,1.7-1.8,2.9-2.3c1.1-0.6,2.4-0.9,3.9-0.9c1,0,1.9,0.2,2.8,0.5
		c0.9,0.3,1.7,0.7,2.4,1.3c0.7,0.6,1.3,1.3,1.8,2.1c0.5,0.8,0.8,1.8,1,2.8h-1.1c-0.5-1.7-1.3-3.1-2.4-4.1c-1.2-1-2.7-1.5-4.4-1.5
		c-1.3,0-2.4,0.3-3.4,0.8c-1,0.5-1.8,1.2-2.5,2.1c-0.7,0.9-1.2,1.9-1.5,3.1c-0.3,1.2-0.5,2.4-0.5,3.6c0,1.3,0.2,2.5,0.5,3.6
		c0.3,1.1,0.8,2.1,1.5,3c0.7,0.8,1.5,1.5,2.5,2c1,0.5,2.2,0.7,3.5,0.7c1.2,0,2.2-0.2,3.1-0.6c0.9-0.4,1.7-0.9,2.3-1.7
		c0.6-0.7,1.1-1.6,1.4-2.6c0.3-1,0.5-2.1,0.4-3.4h-7.1v-1.1H108.7z"/>
	<path class="st0" d="M121.3,1l7.6,20.1h-1.3l-2.4-6.4H116l-2.5,6.4h-1.3L120,1H121.3z M124.8,13.6l-4.1-11.4h-0.1l-4.3,11.4H124.8z
		"/>
</g>
<g>
	<path class="st0" d="M132.6,1h1.5l12.2,18.4h0.1V1h1.2v20.1h-1.4L133.9,2.5h-0.1v18.6h-1.2V1z"/>
</g>
<rect x="-0.9" class="st1" width="22.7" height="23.6"/>
<rect x="21.8" class="st2" width="22.7" height="23.6"/>
<rect x="-0.9" y="23.6" class="st3" width="22.7" height="23.6"/>
<rect x="21.8" y="23.6" class="st4" width="22.7" height="23.6"/>
<g>
	<defs>
		<rect id="SVGID_1_" x="0.2" y="1.9" width="20.6" height="20.1"/>
	</defs>
	<clipPath id="SVGID_2_">
		<use xlink:href="#SVGID_1_"  style="overflow:visible;"/>
	</clipPath>
	<g class="st5">
		<defs>
			<rect id="SVGID_3_" x="0.2" y="1.8" width="20.6" height="20.1"/>
		</defs>
		<clipPath id="SVGID_4_">
			<use xlink:href="#SVGID_3_"  style="overflow:visible;"/>
		</clipPath>
		<g class="st6">
			<defs>
				<rect id="SVGID_5_" x="0.2" y="1.8" width="20.6" height="20.1"/>
			</defs>
			<clipPath id="SVGID_6_">
				<use xlink:href="#SVGID_5_"  style="overflow:visible;"/>
			</clipPath>
			<path class="st7" d="M6.6,16.4C6.6,16.4,6.6,16.4,6.6,16.4C6.6,16.4,6.6,16.5,6.6,16.4C6.6,16.5,6.5,16.5,6.6,16.4 M16.5,11.9
				L16.5,11.9L16.5,11.9L16.5,11.9C16.4,11.9,16.5,11.9,16.5,11.9 M17.9,11.4c0,0,0.2,0,0.2,0.1l0-0.1c0,0-0.1,0-0.1-0.1l0-0.2
				L18,11l0,0c0,0,0,0-0.1,0c0,0,0,0.2-0.1,0.2c0,0-0.1,0,0-0.2c0,0,0-0.1,0-0.2c0,0,0.1-0.2,0.1-0.2c0,0,0.1,0,0.1,0.2l0.1,0.1
				c0,0,0,0,0,0l0.1,0c0,0,0-0.1,0.1-0.1l0-0.1l0,0l0-0.1c0,0-0.1,0,0-0.1c0,0,0,0,0.1-0.1l0.2-2.5h-0.1c0,0,0-0.1,0-0.1l0.1-0.2
				l0,0l-0.1,0c0,0,0-0.2,0-0.3c0,0,0,0,0-0.1l-0.3,0l-0.3,4.1c0,0,0,0,0,0l0.1,0l0.1,0C17.9,11.3,17.9,11.4,17.9,11.4 M17.9,13.3
				l-0.1,0.6l0.1,0l0-0.1l0-0.3c0,0,0,0,0.1-0.1L17.9,13.3L17.9,13.3 M17.6,15.3L17.6,15.3c0.1,0,0.1,0.1,0.1,0l0,0l0.1,0l0,0
				l-0.1,0.2l0,0l-0.1-0.2L17.6,15.3 M18.3,16.9l0,0.2c0,0,0.1,0,0.1-0.1L18.3,16.9 M18.3,13.3l0,0.1c0,0,0.1,0,0.1,0.1l0,0.1l0,0
				l0,0.1l0,0l0,0l0,0c0,0,0.1,0,0.1,0.2l0,0.2c0,0,0,0-0.2,0.1l0,0.5c0,0,0.1,0,0.1,0.1l0,0.1l0,0c0,0,0.1,0,0.1,0.1l0.8-0.2
				c0,0,0-0.1-0.1-0.1c0,0-0.1,0-0.1-0.2c0,0-0.3-0.8-0.3-0.9c0,0-0.1-0.1-0.1-0.2l0-0.1l-0.1-0.1L18.3,13.3L18.3,13.3 M17.6,15
				c0,0,0-0.5,0.1-0.5c0,0,0.1,0,0.2-0.1l0-0.1h0l0,0.4l0,0.1c0,0-0.1,0-0.1,0.1C17.8,14.9,17.6,14.9,17.6,15
				C17.7,15,17.7,15.1,17.6,15 M17.2,14.8c0,0,0.1,0,0.1-0.1c0,0,0.5-1.1,0.5-1.2l-0.1,0.5l0,0l0,0.2l0,0.1c0,0,0,0,0,0.1
				c0,0-0.1,0-0.1,0.1L17.6,15l-0.4-0.1L17.2,14.8 M17.2,13.9l0.2-0.3c0,0,0.1-0.3,0.2-0.3l0.1-0.1l0.1-0.1c0,0-0.1,0.1-0.2,0
				c0,0,0,0,0.1-0.2c0,0,0-0.1,0.1-0.1c0,0,0.1-0.2,0.2-0.1c0,0,0.1,0,0,0.1l0.1,0l0.1-1.2c0,0,0,0.1-0.2,0c0,0,0,0.1,0,0.1l-0.1,0
				l0.1,0.1c0,0,0,0.1-0.1,0l-0.2-0.1l0,0.2c0,0-0.1,0.1-0.2,0l0-0.1l0,0l-0.1,1c0,0,0.1,0,0,0.1c0,0-0.1,0,0,0c0,0,0.2,0,0,0.1l0,0
				c0,0,0,0.2,0,0.3c0,0,0,0.2-0.1,0.3l0,0C17.2,13.6,17.2,13.6,17.2,13.9 M16.3,10.5c0,0,0.1,0,0.1-0.1v0.3c0,0,0,0,0,0.1l-0.1,0
				L16.3,10.5 M17.7,13.4c0,0-0.2,0.2-0.5,0.9l0,0.2C17.2,14.5,17.5,13.7,17.7,13.4C17.7,13.4,17.8,13.3,17.7,13.4 M17,17.1l0.3,0.1
				L17,17.4C17,17.4,17,17.2,17,17.1 M15.7,19.3l-0.4,1.5c0,0,0,0,0.1,0.1l0.1,0.1c0,0,0,0,0.1-0.1c0,0,0.2,0,0.2-0.1l0.2-0.9
				l-0.1-0.1c0,0-0.1,0-0.1,0l-0.1-0.3C15.7,19.4,15.7,19.4,15.7,19.3C15.7,19.4,15.7,19.3,15.7,19.3 M16.1,17.9c0,0-0.1,0-0.1,0.1
				l-0.2,0.8l0.1,0.4l0,0l0.1,0.2l0.3-1.2c0,0,0-0.1-0.1-0.1L16.1,17.9 M17.6,17.1L17,17.4l-0.1,1l0.2,0l0,0l0.1-0.2l0.4-0.4l-0.2,0
				l0,0l-0.1,0l0-0.1l0.1-0.1l0-0.2c0,0-0.1-0.1,0.1-0.1L17.6,17.1 M17.8,17l0,0.2l0,0c0,0,0,0,0-0.1C17.9,17.2,17.9,17,17.8,17
				 M17.8,16.9c0,0,0.1,0,0.1-0.1l0.1-0.1l0,0.5H18l0-0.2c0,0,0,0-0.1,0l-0.1,0L17.8,16.9 M17.6,16.9l-0.5,0l0,0.1
				c0,0,0.2,0.1,0.4,0.1c0,0,0.1,0,0.2-0.1V16.9 M16.6,17.1l-0.1,0.2l0.1,0L16.6,17.1 M16.3,17L16.3,17l0.2,0.3l0.1-0.2L16.3,17
				 M16.6,17.4L16.6,17.4l0,0.9l-0.1-0.4l-0.1-0.1l0-0.1C16.4,17.6,16.6,17.6,16.6,17.4L16.6,17.4 M15.5,17l0.3,0.1l0.1,0.2l0,0.2
				c0,0-0.1,0-0.1,0.1l-0.2,0.5c0,0,0,0.1,0.1,0.2c0,0,0.1,0.1,0.2,0.1l0.1,0l-0.1,0.5l-0.4-1.2l0,0l-0.1-0.2l0.1-0.1
				c0,0,0.1,0,0.1-0.1L15.5,17 M16.2,16.6L16.2,16.6l0.2-0.2l0.1-0.5L16.4,16L16.2,16.6 M16.1,15.6l-0.4,0.5c0,0-0.1-0.1-0.1-0.2
				l-0.1-0.1l-0.2-0.2c0,0,0,0-0.1,0l-0.1,0l0-0.3c0,0,0.1,0,0.1-0.1l0-0.2l0.1-0.1l0,0l0.2,0c0,0,0.1,0,0.1-0.1l0,0
				c0,0-0.3-0.1-0.3,0l0,0c0,0,0,0,0-0.1c0,0,0-0.1,0-0.1c0,0,0-0.1-0.1-0.1l0-0.7c0,0,0.1,0,0.1-0.1l0-0.2l0,0l0-0.4l0-0.1
				c0,0,0,0.1,0.1,0l0.1,0c0,0,0,0.1,0.1,0l0,0c0,0,0.1,0,0.1-0.1c0,0,0-0.1-0.1-0.1l-0.1,0l-0.1,0c0,0,0-0.1,0-0.1c0,0,0-0.1,0-0.2
				l0.1-0.2l0.5-0.2l0.3-0.2l0.1,0l0,0c0,0,0.3-0.1,0.4-0.2c0,0,0.1-0.1,0-0.2l-0.1-0.1l0.1,0l0.2,0L17,12.8c0,0-0.1,0-0.1,0l0,0.2
				c0,0-0.1,0.1-0.1,0.1l-0.1,0l0,0l-0.1,0c0,0,0-0.1-0.1-0.1c0,0,0-0.1-0.1-0.1c0,0-0.1,0,0,0l0,0.1l0,0l0,0.1c0,0-0.1,0.1,0,0.2
				c0,0,0.1,0,0.1-0.1c0,0,0.1,0,0.1-0.1l0.1,0l0,0h0.1c0,0,0,0.1,0.1,0c0,0,0,0.2,0,0.3l0,0l0,0l-0.1,1.4l-0.1,0c0,0-0.1,0-0.1,0
				l-0.2,0.2l0,0c0,0-0.1-0.1-0.1,0l0,0.1l-0.1,0v0.1C16.2,15.5,16.1,15.6,16.1,15.6 M17.2,15.2h0.2H17.2L17.2,15.2 M17.5,15.2
				L17.5,15.2l0.1,0.2L17.5,15.2L17.5,15.2 M17.2,15.5h0.1l0.2,0.3c0,0,0,0,0.1,0.1l0,0.1l-0.1,0c0,0-0.1,0.2-0.1,0.4l0,0.1l-0.3,0
				l0-0.9C17.1,15.7,17.2,15.6,17.2,15.5L17.2,15.5 M16.7,15.7c0,0-0.1,0.1-0.1,0.2l-0.2,0.6l0.2,0l0.1-0.4L16.7,15.7 M16.3,16.1
				L16,16.3l-0.1,0.1l0.1,0.1l0.1,0.1L16.3,16.1 M15.1,16.2l0,0.2l0.4,0.1l0.1-0.2l-0.1-0.1l-0.1,0c0,0-0.1,0-0.1-0.1c0,0,0,0-0.1,0
				L15.1,16.2 M14.6,13.9l0.1,0l0.1,0l0.1,0l0,0.6c0,0-0.1,0-0.1,0.1c0,0,0,0,0,0.1V15l-0.1,0.1c0,0,0-0.1-0.1-0.1l-0.2-0.3l0-0.1
				l0.1,0l0-0.1l0.2-0.1l0-0.1c0,0,0.2,0,0.2-0.1l0-0.2c0,0,0,0-0.1,0L14.6,13.9L14.6,13.9 M14.5,13.3c0,0,0.1,0,0.2,0
				c0,0,0,0.1,0.1,0.1l-0.2,0.3l-0.2,0L14.5,13.3 M13.8,12.8l0.2,0.1c0,0,0.1,0.4,0.1,0.4c0,0,0.2,0.1,0.1,0.2l-0.1,0.1
				c0,0-0.1-0.2-0.2-0.3c0,0-0.1,0-0.1-0.1l-0.1-0.2c0,0,0,0,0-0.1C13.9,13,13.8,12.8,13.8,12.8 M12.8,12.4l0.6,0
				c0,0,0.1,0.2,0.2,0.2l0,0c0,0,0.2,0.3,0.2,0.4c0,0,0,0.1,0.1,0.3c0,0,0,0.1,0.2,0.2l0.1,0.3c0,0,0,0,0,0
				C14.1,13.8,13.7,13,12.8,12.4 M13.8,12.4c0,0,0.8,0,2.1-0.2c0,0-0.2,0.1-0.3,0.1l-0.9,0.4l-0.1,0h-0.5l-0.1,0l-0.1,0l-0.2-0.1
				C13.8,12.5,13.8,12.5,13.8,12.4C13.8,12.4,13.7,12.4,13.8,12.4 M11.4,8.9L11.4,8.9l0.1,0.2l0,0l0-0.1l0,0L11.4,8.9 M10.9,8.9
				c0,0,0.1,0,0.1-0.1c0,0,0,0,0,0.1l0,0.2l0,0l0,0.1c0,0,0-0.1-0.1-0.1c0,0,0,0,0,0C10.9,9.1,10.9,9.1,10.9,8.9 M10.8,10.7l0,0.2
				l0.1,0L10.8,10.7C10.9,10.7,10.9,10.7,10.8,10.7 M10.8,11.1l0,0.3c0,0,0.1,0,0.2,0l0-0.3c0,0,0,0,0-0.1
				C10.9,11,10.8,11.1,10.8,11.1C10.8,11.1,10.8,11.2,10.8,11.1 M11.5,10.9l0.1,0l0,0.3c0,0-0.1,0-0.1,0L11.5,10.9
				C11.5,11,11.5,11,11.5,10.9 M8.3,13.8c0,0,0.4-1,1.5-1.5l0.1-0.1c0,0-0.1-0.1,0-0.1c0,0,0.1-0.1,0.2,0l0.1,0.1l0,0
				c0,0,0.8-0.4,1.9-0.1c0,0,0,0,0-0.1c0,0,0,0,0,0l-0.1,0c0,0-0.1-0.1,0,0l0,0l0-0.1c0,0-0.1-0.1,0-0.2l-0.5,0c0,0,0,0,0,0l0-0.1h0
				l0,0.1h-0.1l0-0.1l0,0c0,0-0.1,0,0-0.1c0,0,0,0,0-0.1l0-0.2l0,0l0-0.1l-0.1,0c0,0-0.1,0,0-0.3c0,0,0-0.3,0.1-0.2l0.1,0
				c0,0,0-0.1,0.1-0.1l0,0l0,0l0-0.4l0,0c0,0,0,0,0,0h-0.1c0,0,0,0-0.1-0.1l-0.2,0l0-0.1c0,0,0,0,0,0H11l0,0.1h-0.1l0,0l0,0l0,0.6
				l0,0l0,0l0.1,0l0,0.1l0.2,0c0,0,0.1,0.3,0,0.4l-0.1,0v0.1l0,0l0,0.3c0,0,0.1,0.1,0,0.1l0,0.1c0,0,0,0.1-0.1,0l0-0.1l0,0
				c0,0-0.1,0-0.1,0l0,0.1c0,0,0.1,0.1,0,0.1l-2.4-0.1c0,0,0,0.3-0.1,0.4l0,0.8c0,0,0.1,0,0.2,0.1c0,0,0,0,0.1,0c0,0,0.1,0,0,0l0,0
				c0,0,0,0.1,0,0.1c0,0,0,0.3-0.1,0.3l0,0l-0.1,0c0,0,0,0,0,0.1L8.3,13.8C8.2,13.8,8.3,13.8,8.3,13.8 M5.5,17.5l0,0.6l0.1-0.4
				C5.6,17.7,5.6,17.5,5.5,17.5 M6.4,19.6l0.1,0.3l0.1-0.1C6.5,19.7,6.4,19.7,6.4,19.6C6.4,19.6,6.4,19.5,6.4,19.6 M6.4,20.3
				l-0.2,0.5l0.1,0c0,0,0,0,0,0.1l0,0.1c0,0,0-0.1,0.1-0.1c0,0,0.1,0,0.1-0.1L6.4,20.3 M5.8,17.9l-0.1,0.3c0,0,0.1,0.1,0,0.2l0,0
				l0.4,2.3h0L6.4,20l-0.1-0.5l-0.1,0c0,0,0,0.1-0.1,0l0-0.1c0,0,0,0,0-0.1c0,0,0,0,0.1,0c0,0,0.1,0,0.1,0.1l0,0
				c0,0-0.2-1.3-0.3-1.3C6,18,5.9,18,5.8,17.9 M5.9,17.8l0.5-1c0,0,0.1-0.1,0.1-0.1l0,0l0.6,0.7l0,0l-0.6,1.8l0,0l-0.1,0.2l-0.1,0
				l0-0.1L6.1,18C6.1,18,6.1,17.9,5.9,17.8C5.9,17.9,5.9,17.9,5.9,17.8 M6.2,15.8c0,0,0.8,0,1.4-0.2l0.1,0.1c0,0,0,0,0,0.1
				c0,0-0.1,0.2-0.2,0.9l-0.1,0.1l0-0.2c0,0,0-0.1-0.1,0c0,0-0.1,0.1-0.1,0.2l0,0c0,0-0.2-0.3-0.3-0.3c0,0,0-0.1-0.1-0.1l-0.2-0.2
				l0,0L6.2,15.8 M5.9,16c0,0,0.3,0.4,0.5,0.5l0,0l-0.1,0.1l-0.1,0.1l-0.5,0.9l0-0.1c0,0,0.1-0.2,0.1-0.3L5.9,16 M5.6,15.8l0.2,0
				l0,1.1L5.6,15.8 M5.4,15.8l0,1.2l0.1,0.4l0.1,0.1l0.1,0.1c0,0,0.1-0.3,0.1-0.4L5.4,15.8C5.5,15.9,5.4,15.8,5.4,15.8 M5,15.7
				l0.1,2.6l0,0l-0.2,0c0,0-0.1-0.1-0.2-0.1l-0.9-1.1l0,0c0,0,0.2,0,0.1-0.1l-0.1-0.3l0,0l0,0l0.8-1C4.7,15.7,5,15.8,5,15.7L5,15.7
				 M5.1,7.5l1.6,0.9l0,0l0,0l-0.1,0v0.1c0,0-0.1,0-0.1,0.1l0,0c0,0-0.1,0-0.1,0c0,0,0,0.1,0,0.2l0,0.3l-0.1,0c0,0-0.1,0-0.1,0.2
				l0,0c0,0,0-0.1,0-0.1c0,0,0-0.1-0.1-0.1c0,0,0,0,0,0.1c0,0,0,0.1,0,0.1c0,0-0.1,0.1,0,0.1c0,0,0,0.1,0,0.1c0,0,0,0.1,0,0.1
				c0,0,0,0,0.1-0.1l0.1,0l0-0.1l0.1,0c0,0,0,0.1,0.1,0.2l0.1,0v0l0,0.1c0,0-0.2,0-0.2,0l0,0.1c0,0-0.1,0,0,0.1l0,0.1l0.1,0l0.1,0
				l0,0c0,0-0.8,0-1.3,0.1L5,8l0,0c0,0,0-0.3,0-0.3c0,0,0,0-0.1,0l0-0.1C4.9,7.6,5,7.5,5.1,7.5 M4.4,15.7L4.1,16
				c0,0-0.3,0.2-0.3,0.3c0,0,0,0.1,0,0.2l-0.2,0.3l-1.9,2.2c0,0-0.1,0-0.1,0c0,0-0.1,0.1-0.2,0.3c0,0,0,0,0,0.1c0,0,0,0,0,0.1
				c0,0,0,0,0,0.1l0,0c0,0-0.1,0.1,0,0.1l0,0c0,0,0,0.1,0.2,0.1c0,0,0.1,0,0.2-0.1c0,0,0.1-0.1,0.1-0.2c0,0,0,0,0-0.1c0,0,0,0,0,0
				c0,0,0-0.1,0-0.1c0,0,0,0,0-0.1c0,0,0,0,0.1-0.1l1.2-1.4l0,0L3.5,17c0,0,0.1,0,0.1,0.1c0,0,0,0,0.1,0.1l0.9,1.1l0.1,0.1l0.1,0.1
				c0,0,0,0.1,0,0.1c0,0,0.3,0,0.3,0c0,0,0,0.1,0.2,0.1l0.1,0.1l0,0c0,0,0,0-0.1,0.1l0,0.2c0,0-0.1,0,0,0.1c0,0,0,0.1,0.2,0.1
				c0,0,0.1,0,0.1-0.1c0,0,0.1,0,0-0.1c0,0,0-0.1,0-0.3c0,0,0,0,0,0l0-0.2l0.1-0.1l0,0L6,20.8c0,0,0,0.1-0.1,0.2
				c0,0-0.3,0.3-0.1,0.5c0,0,0.1,0.2,0.3,0.1l0.1-0.1l0,0c0,0,0,0.3,0.1,0.4c0,0,0,0.1,0.1,0.1c0,0,0.3,0,0.3-0.1c0,0,0.1,0,0-0.2
				c0,0,0-0.1,0-0.1l0,0c0,0,0,0,0,0c0,0,0,0,0-0.1l0,0l0,0l-0.1-0.4c0,0,0-0.1-0.1,0c0,0,0-0.1,0-0.1c0,0,0.2-0.1,0.1-0.2l-0.1-0.6
				l0.1-0.4c0,0,0,0,0.1,0l0.1-0.3l0,0l0.6-1.7l0.2,0.2c0,0,0.1,0.4,0.1,0.5c0,0-0.1,0.1-0.1,0.2c0,0,0,0.2,0.1,0.2l0.1,0l0.1,0l0,0
				c0,0,0.5,1.2,1.8,1.8c0,0,0,0,0,0.1c0,0,0,0,0,0c0,0-0.1,0.1,0.1,0.2c0,0,0.1,0.1,0.2,0c0,0,0,0,0-0.1c0,0,0,0,0.1,0
				c0,0,1,0.5,2.4,0l0,0c0,0,0,0,0.1,0l0,0c0,0,0,0.1,0.1,0c0,0,0.1,0,0.1-0.1l0-0.1l0,0v0c0,0,1.3-0.6,1.8-1.7c0,0,0,0,0.1,0h0.1
				l0,0h0.2c0,0,0,0,0-0.1c0,0,0-0.6,0-0.6c0,0,0-0.1-0.1-0.1c0,0,0,0,0-0.1c0,0,0.1-0.2,0.1-0.2l0.4,1.3c0,0-0.4,1.5-0.4,1.6
				c0,0,0,0,0.1,0.1c0,0,0.1,0.1,0.1,0.2c0,0-0.1,0-0.1,0.1l-0.1,0.4l0,0.1l0,0l0,0l0,0c0,0,0,0,0,0l0,0c0,0-0.1,0.1,0,0.2
				c0,0,0,0,0.1,0.1c0,0,0.2,0.1,0.2,0.1c0,0,0.1,0,0.1-0.3l0-0.1l0,0c0,0,0,0,0-0.1c0,0,0-0.1,0-0.1l0,0l0-0.2c0,0,0-0.1-0.1-0.1
				c0,0-0.1-0.1,0-0.1c0,0,0.2,0,0.2-0.1l0.2-0.8l0.2,0.5c0,0-0.1,0-0.1,0.1l0.1,0.3c0,0-0.1,0.2,0.1,0.4c0,0,0.1,0.1,0.2,0
				c0,0,0.2-0.1,0.1-0.3c0,0,0-0.1-0.1-0.3l0,0l-0.1-0.2c0,0,0,0-0.1,0l0,0l-0.2-0.8l0-0.1c0,0,0.1,0,0,0l0,0l0.1,0c0,0,0,0,0.1,0
				l0.1,0c0,0,0,0.1,0.1,0.1c0,0,0.1,0,0.1-0.1c0,0,0-0.1,0-0.2c0,0,0-0.1-0.1-0.1c0,0,0,0,0,0.1l-0.1,0c0,0,0,0,0,0.1l-0.1,0l0-0.1
				l0.2-1.1c0,0,0,0.1,0,0.2l0.1,0.1c0,0,0,0,0.1,0.1v0.2c0,0,0,0,0.1,0l0,0.1l0.1-0.1c0,0,0.2,0.1,0.2-0.1l0,0l0.3,0c0,0,0,0,0-0.1
				l0.1-0.1l0.1-0.2l0.6-0.6c0,0,0.1,0,0.1-0.1l0,0l0,0l0,0c0,0,0.1-0.1,0.1-0.1v-0.1l0.1-0.1l0,0c0,0,0.1-0.1,0.2-0.1l0,0l0.1,0.1
				c0,0,0,0.1,0.1,0.1l1.4,1.9c0,0,0,0,0,0.1l0,0.1c0,0,0,0.1,0,0.1c0,0,0,0.1,0.1,0.2c0,0,0.1,0.2,0.2,0.2c0,0,0.2,0,0.2-0.1
				c0,0,0-0.1-0.1-0.1c0,0,0,0,0-0.1c0,0,0,0,0-0.1l0,0c0,0-0.1-0.3-0.2-0.4l0,0l0,0l-0.1,0c0,0,0,0-0.1-0.1l-1.5-2l0,0l-0.4-0.5
				c0,0,0.1-0.8,0-1c0,0,0,0-0.1-0.1l0-0.1l0,0l0.1,0c0,0,0.1,0,0.1-0.1l0.8-0.2c0,0,0,0.1,0,0.1c0,0,0,0.1,0,0.2L20,17
				c0,0,0.1,0.2,0.1,0.3l0,0.1l0,0.2c0,0-0.1,0.1-0.1,0.1l0,0.3c0,0,0,0.2,0.3,0.3c0,0,0.1,0.1,0.1-0.1c0,0,0.1-0.1,0.1-0.1
				l-0.2-0.5c0,0,0,0-0.1,0l0,0c0,0,0-0.1,0-0.2c0,0,0-0.1,0-0.2c0,0,0-0.1,0-0.2l-0.5-1.6c0,0,0-0.1-0.1-0.1c0,0,0,0-0.1-0.1
				l-0.1-0.3c0,0,0-0.1,0-0.2L19,13.5c0,0-0.1-0.2-0.1-0.2c0,0-0.1-0.1-0.1-0.1c0,0-0.1-0.2-0.1-0.2l-0.2,0c0,0,0-0.1-0.1-0.1
				l0.1-1.2c0,0,0,0,0-0.2c0,0,0.1,0,0.1-0.1l0-0.3c0,0,0,0,0-0.1l0-0.2c0,0,0,0,0-0.1c0,0,0-0.1-0.1-0.1l0-0.1c0,0,0,0,0.1,0
				c0,0,0-0.1,0-0.2c0,0,0,0,0,0l0.2-2.9c0,0,0,0,0.1,0l1.3,1.6c0,0,0.1,0,0.1-0.1c0,0-1.3-1.6-1.3-1.6l0-0.1l0,0c0,0,0,0,0.1,0
				c0,0,1.3,0,1.8-0.1c0,0,0.1-0.1-0.1-0.2c0,0,0.2-0.1,0.1-0.2c0,0-0.5-0.2-1.7-0.3c0,0,0,0-0.1,0c0,0-0.1-0.1-0.2-0.1l0-0.1
				c0,0,0-0.1-0.1-0.1v0c0,0,0.1-0.1,0-0.1l0-0.1l0,0l0-0.1l0.1,0.1c0,0,0.1,0,0-0.1l-0.1-0.1l0-0.1l-0.1,0l0.1-1.2c0,0,0-0.1-0.1,0
				l-0.1,1.2l0,0c0,0-0.1-0.1-0.1-0.1c0,0-0.1,0.1,0,0.1c0,0,0,0.1,0.1,0.1l0,0.2l0,0v0.1c0,0-0.1,0,0,0.1l0,0.1h0l0,0.1l0,0l-0.2,0
				c0,0,0-0.1-0.1-0.2c0,0-0.1-0.2-0.4-0.2l-0.1,0l-1.5-1.8c0,0,0,0,0-0.1l-0.1-0.1l-0.1-0.2l0.1-0.2c0,0,0-0.1-0.1,0L16,3.8l0-0.1
				l-0.1-0.2l0,0l0-0.1c0,0,1.7-0.6,2.2-1.1c0,0,0.4-0.3,0.2-0.4c0,0-0.2-0.1-1.3,0.1c0,0-0.2,0-1,0.3l-0.3,0.1l0-0.1l-0.1,0
				c0,0,0-0.1,0-0.1l-0.1,0c0,0,0,0-0.1,0c0,0-0.1-0.1-0.1,0l0,0.1l0,0.1c0,0-0.1,0.1-0.1,0.1l0,0.1c0,0-1.3,0.4-2.1,1
				c0,0-0.4,0.3-0.2,0.5c0,0,0.4,0.2,1.5-0.1c0,0,0.8-0.2,1.2-0.4l0,0.1c0,0,0,0,0,0.1l0,0c0,0-0.2,0-0.2,0.3c0,0,0,0.3,0.3,0.2
				c0,0,0.1,0,0.2-0.1l0,0l0.2,0.2c0,0,0,0,0.1,0l1.4,1.7c0,0-0.1,0.2,0,0.3c0,0-1.1,0.1-1.1,0.2c0,0-0.1,0.1,0.2,0.2
				c0,0,0.2,0.1,0.9,0.2l0.1,0l-0.3,3.3l-0.1,0.8c0,0-0.1,0-0.2-0.1L17,11l0-0.3c0,0-0.1,0-0.1,0l0,0.3l0,0c0,0-0.2,0-0.3,0l0-0.1
				c0,0,0,0-0.1,0v-0.1l0,0l0-0.3c0,0,0.1-0.1,0-0.2c0,0,0-0.1,0-0.1c0,0,0,0,0,0.1l0,0l-0.1,0l0-0.1c0,0,0.1-0.1-0.1-0.1
				c0,0-0.2,0-0.6,0V9.9c0,0,0.1-0.1,0-0.2l0.3,0c0,0,0,0,0-0.1l0-0.1c0,0,0,0-0.1,0c0,0-0.1,0-0.2,0l-0.1,0c0,0,0-0.2-0.1-0.2
				l0-0.3l0-0.1c0,0,0-0.1-0.1-0.1c0,0-0.1,0-0.1,0c0,0,0,0.1,0,0.1l0,0.3c0,0,0-0.1-0.1-0.1c0,0-0.1-0.1-0.1-0.1V9.1l0-0.4
				c0,0,0-0.1-0.3-0.1c0,0-0.1-0.2-0.1-0.2l0-0.1c0,0,0.1-0.1-0.1-0.1c0,0-0.6-0.1-2.2,0c0,0-1.3,0.1-1.3,0.3c0,0-0.1,0,0,0.1
				c0,0-0.1,0.1,0,0.2l0,0.1l0,0.3l0,0l0,0.1l-0.1,0c0,0,0-0.1-0.1,0V9.1l0-0.3c0,0,0.1-0.1,0-0.1l0-0.1c0,0,0-0.1-0.1,0l0,0.1l0,0
				c0,0,0,0-0.1-0.1l0-0.1c0,0,0.1,0,0.1-0.1c0,0,0-0.2-1.8-0.4c0,0-0.9-0.1-1.9-0.1c0,0-0.6,0-0.5,0.1l0,0.1l0,0.1l-0.1,0
				c0,0,0-0.1-0.1-0.1L5.1,7.3c0,0,0-0.2,0-0.2c0,0,1.1,0.2,1.5-0.2c0,0,0.3-0.3,0-0.7c0,0-0.4-0.8-2-1.5c0,0-1.4-0.7-2.8-0.9
				c0,0-1.4-0.2-1.6,0.3c0,0-0.2,0.4,0.6,1c0,0,0.6,0.6,2.1,1.3c0,0,0.5,0.2,1.1,0.4l0.4,0.2c0,0,0,0.1,0,0.1l-0.1,0
				c0,0,0,0-0.1,0.1c0,0-0.1,0.1-0.1,0.2c0,0,0,0,0.1,0l0.1-0.1l0.1,0l0,0.1c0,0,0,0.1,0.1,0.2l0.1,0.1l0,0.1c0,0,0,0.1,0,0.1l0,0
				l0,2.3c0,0-1,0.1-0.8,0.5l-0.1,0.1c0,0-0.1,0,0,0.1l0,0.1c0,0,0,0,0,0.1l0,0l0,0.3l0,0.1l-0.1,0c0,0-0.1,0.2,0,0.4l0.1,0
				c0,0,0,0.1,0.1,0.1l0,0l0,1.8c0,0,0,0.1,0,0.2v0.1c0,0-0.1,0-0.1,0.1c0,0-0.1,0-0.1,0c0,0-0.1,0.3,0,0.4l0.1,0v0.1l0,0l0,0.1
				c0,0-0.1,0.1-0.1,0.2c0,0,0,0.1,0.1,0.1l0,0c0,0,0,0.2,0.5,0.4L4.4,15.7"/>
		</g>
	</g>
</g>
<g>
	<defs>
		<rect id="SVGID_7_" x="29.6" y="0.8" width="7" height="22.2"/>
	</defs>
	<clipPath id="SVGID_8_">
		<use xlink:href="#SVGID_7_"  style="overflow:visible;"/>
	</clipPath>
	<g class="st8">
		<defs>
			<rect id="SVGID_9_" x="29.6" y="0.8" width="7" height="22.2"/>
		</defs>
		<clipPath id="SVGID_10_">
			<use xlink:href="#SVGID_9_"  style="overflow:visible;"/>
		</clipPath>
		<g class="st9">
			<defs>
				<rect id="SVGID_11_" x="29.6" y="0.8" width="7" height="22.2"/>
			</defs>
			<clipPath id="SVGID_12_">
				<use xlink:href="#SVGID_11_"  style="overflow:visible;"/>
			</clipPath>
			<path class="st10" d="M29.8,21.8c0.2,0.4,0.5,0.6,0.8,0.8c0.3,0.2,1,0.3,1.4,0.3c0.4,0,1,0,1,0S32.9,23,32.9,23
				c0,0,0,0.1,0.1,0.1c0.1,0,0.1,0,0.1-0.1s-0.1-0.1-0.1-0.1s0.4,0,0.9,0c0.7-0.1,1-0.1,1.4-0.3c0.4-0.2,0.6-0.4,0.7-0.6
				c0.1-0.1,0.3-0.6,0.4-0.7c0-0.1,0.1-0.2,0.1-0.5c0-0.1,0-0.2,0-0.3v0c0-0.2,0-0.5-0.1-0.8c-0.1-0.5-0.3-0.9-0.5-1.3
				c-0.2-0.3-0.3-0.6-0.4-0.8c-0.1-0.2-0.1-0.4-0.1-0.6c0-0.3,0.1-0.5,0.2-0.7c0.1-0.3,0.3-0.6,0.4-1.1c0.1-0.5,0-0.9-0.1-1.2
				c-0.1-0.3-0.3-0.3-0.5-0.3c-0.1,0-0.2,0.1-0.3,0.2c-0.1,0.1-0.1,0.4-0.3,0.7c-0.1,0.3-0.3,0.4-0.4,0.5c-0.1,0.1-0.3,0.1-0.4,0.1
				c-0.1,0-0.2-0.1-0.2-0.1c0-0.1-0.1-0.1-0.1-0.2c0-0.1-0.1-0.1-0.1-0.1s0-2.4,0-2.8c0-0.4-0.1-7.5-0.1-7.6c0-0.1,0-0.3,0.1-0.6
				c0.1-0.3,0.2-0.6,0.2-0.8c0.1-0.3,0.1-0.4,0.1-0.6c0-0.2-0.1-0.4-0.1-0.5c0-0.1-0.1-0.2,0-0.3c0.1-0.1,0.1-0.1,0.2-0.3
				c0.1-0.2,0-0.3,0-0.4c-0.1-0.1-0.2-0.2-0.4-0.3c-0.2,0-0.3,0.1-0.3,0.1c0,0-0.1,0.2-0.1,0.2s-0.1,0-0.1,0c0,0,0-0.1,0-0.1
				C33.1,1,33,1,33,1c-0.1,0-0.1,0-0.1,0c0,0,0,0-0.1,0.1c0,0,0,0.1,0,0.1c0,0.1,0,0.1,0,0.1c0,0,0.1,0,0.1,0c0,0,0.1,0,0.1,0
				c0,0,0-0.1,0-0.1l0.1,0L33,1.7c0,0,0,0-0.1,0c0,0,0-0.1,0-0.1c0,0-0.1,0-0.1-0.1c0,0-0.1,0-0.1,0c0,0-0.1,0-0.1,0.1
				c0,0,0,0.1,0,0.1c0,0,0,0.1,0,0.1c0,0,0.1,0,0.1,0c0,0,0.1,0,0.1,0c0,0,0-0.1,0-0.1l0.1,0l-0.1,0.4l-0.1,0c0,0,0,0,0-0.1
				c0,0,0-0.1,0-0.1c0,0-0.1,0-0.1-0.1c0,0-0.1,0-0.1,0.1c0,0,0,0.1,0,0.1c0,0,0,0.2,0,0.2c0,0,0.1,0.1,0.1,0.1c0,0,0.1,0,0.1-0.1
				c0,0,0-0.1,0-0.1l0.1,0l-0.1,0.4l-0.1,0c0,0,0,0,0,0c0,0,0-0.1,0-0.1c0,0-0.1,0-0.1,0c0,0-0.1,0-0.1,0.1c0,0,0,0.1,0,0.1
				c0,0,0,0.2,0,0.2c0,0,0.1,0,0.1,0c0,0,0.1-0.1,0.1-0.1l0.1,0l-0.1,0.4c0,0,0,0-0.1,0c0,0,0-0.1,0-0.1c0,0-0.1,0-0.1-0.1
				c0,0-0.1,0.1-0.1,0.1c0,0,0,0.1,0,0.1c0,0,0,0.2,0,0.2c0,0,0.1,0.1,0.2,0.1c0,0,0.1-0.1,0.1-0.1l0.1,0l-0.1,0.4c0,0,0,0-0.1,0
				c0,0,0-0.1,0-0.1c0,0-0.1-0.1-0.1-0.1c0,0-0.1,0-0.1,0.1c0,0,0,0.1,0,0.1c0,0,0,0.1,0,0.2c0,0,0.1,0.1,0.2,0.1s0.1-0.1,0.1-0.1
				l0.1,0c0,0-0.1,0.2-0.1,0.3c0,0.1,0,0.2,0,0.2c0,0.1,0.1,0.1,0.2,0.2c0.1,0.1,0.1,0.1,0.1,0.2c0,0,0,0.2,0,0.3
				c0,0.5-0.2,8.3-0.2,8.3s0,0.3,0,0.4c0,0.1,0,0.1,0,0.2c0,0,0,0.1-0.1,0.1c-0.1,0-0.2,0.1-0.2,0c-0.1,0-0.2-0.1-0.3-0.2
				c-0.1-0.1-0.3-0.2-0.5-0.2c0,0,0,0,0,0l0,0c0,0,0.1-0.1,0.1-0.1c0,0,0,0-0.1,0c-0.1,0-0.1,0-0.2,0c0,0,0.1,0.1,0.1,0.1s0,0,0,0
				c0,0,0,0-0.1,0c-0.3,0-0.4,0.1-0.5,0.1c-0.1,0-0.4,0.2-0.5,0.7c-0.1,0.5,0,0.8,0,1c0.1,0.3,0.3,0.8,0.3,0.9
				c0.1,0.2,0.2,0.4,0.1,0.8c0,0.4-0.1,0.6-0.2,0.8c-0.1,0.2-0.4,0.8-0.6,1.3c-0.2,0.4-0.2,0.8-0.2,1.2c0,0,0,0.1,0,0.1
				C29.6,21.1,29.6,21.5,29.8,21.8"/>
		</g>
	</g>
</g>
<g>
	<defs>
		<rect id="SVGID_13_" y="28.4" width="20.6" height="13.8"/>
	</defs>
	<clipPath id="SVGID_14_">
		<use xlink:href="#SVGID_13_"  style="overflow:visible;"/>
	</clipPath>
	<g class="st11">
		<defs>
			<rect id="SVGID_15_" x="0" y="28.4" width="20.6" height="13.8"/>
		</defs>
		<clipPath id="SVGID_16_">
			<use xlink:href="#SVGID_15_"  style="overflow:visible;"/>
		</clipPath>
		<g class="st12">
			<defs>
				<rect id="SVGID_17_" y="28.4" width="20.6" height="13.8"/>
			</defs>
			<clipPath id="SVGID_18_">
				<use xlink:href="#SVGID_17_"  style="overflow:visible;"/>
			</clipPath>
			<path class="st13" d="M12.5,41.1c0.4,0,0.7-0.1,0.9-0.4c-0.1,0.6-0.7,0.6-1.1,0.4C12.4,41.1,12.4,41.1,12.5,41.1 M12.5,40.6
				c-0.2,0-0.4-0.1-0.6-0.2c0.5-0.1,0.9-0.7,1-1.2c0,0.1,0.2,0.1,0.2,0.1c0.1,0,0,0.2,0,0.2c0,0-0.1,0.1,0,0.1
				c0.1,0,0.1,0.1,0.2,0.1c0.1,0.1,0.1,0,0.1,0.1c0,0.1-0.1,0.1-0.1,0.2C13,40.5,12.8,40.7,12.5,40.6 M16,39.3
				c0.1,0,0.2,0.2,0.3,0.3c0.1,0.1,0.2,0.2,0.1,0.3c-0.2,0.2-0.4,0.4-0.6,0.5c-0.5,0.3-1,0.6-1.5,0.7c-0.2,0.1-0.5,0.1-0.7,0.1
				c0.2-0.2,0.3-0.5,0.3-0.8c0-0.1,0-0.4,0.1-0.4c0.1,0,0.3,0.1,0.4,0.1c0.1,0,0.3,0.1,0.4,0.1c0.1,0,0.3,0.2,0.4,0.1
				c0.1-0.1,0.2-0.2,0.2-0.3c0.1-0.1,0.2-0.2,0.3-0.3C15.7,39.6,15.9,39.4,16,39.3 M15.5,39.2c0.1-0.1,0.2,0,0.3,0.1
				c-0.2,0.2-0.4,0.4-0.5,0.7c-0.1,0.1-0.2,0.2-0.2,0.4c-0.1,0.1-0.3,0-0.3,0c-0.2,0-0.4-0.1-0.6-0.2c0.3-0.1,0.5-0.1,0.8-0.3
				c0,0,0.2-0.1,0.1-0.1c0,0-0.1,0.1-0.2,0.1c-0.1,0.1-0.3,0.1-0.4,0.2c-0.1,0-0.4,0.1-0.5,0.1c0.1-0.1,0.2-0.2,0.2-0.3
				c0-0.1,0-0.3,0.2-0.3c0.1,0,0.2,0.2,0.4,0.2c0.1,0.1,0.3,0.1,0.4,0C15.3,39.4,15.4,39.2,15.5,39.2 M15.4,39
				c0-0.1,0.1-0.1,0.1-0.1C15.5,38.9,15.5,39,15.4,39 M16.8,39.4c-0.1,0-0.3-0.1-0.4-0.2c-0.1-0.1,0-0.1,0-0.1
				c0-0.1,0.1-0.1,0.1-0.2c0.1-0.1,0.1-0.1,0.1,0c0,0.1,0.1,0.1,0.1,0.2c0,0,0.1,0.1,0.1,0.2C16.9,39.3,16.8,39.4,16.8,39.4
				C16.8,39.4,16.8,39.4,16.8,39.4 M16.2,39.1C16.2,39.1,16.1,39.1,16.2,39.1c0-0.1,0.2-0.4,0.3-0.4C16.4,38.9,16.3,39,16.2,39.1
				 M16,39c0,0-0.1-0.1-0.1-0.1c-0.1-0.1-0.1-0.1,0-0.2c0.1-0.2,0.2-0.1,0.4-0.1C16.2,38.8,16.1,38.9,16,39 M15.7,38.6
				C15.7,38.6,15.7,38.5,15.7,38.6C15.8,38.5,15.7,38.6,15.7,38.6 M14.7,39.2c0,0-0.2,0-0.2,0c0,0,0-0.1,0-0.2
				c0.1-0.1,0.2-0.2,0.3-0.3c0.1-0.1,0.1-0.3,0.3-0.2c0.1,0,0.1,0.1,0.2,0.1c0,0,0,0.1-0.1,0.2c0,0.1-0.2,0.2-0.2,0.3
				c0,0.1,0.3,0.1,0.2,0.2c-0.2,0.3-0.5,0-0.6-0.1c0.2,0,0.3,0,0.5,0C15.1,39.2,14.8,39.2,14.7,39.2 M13.6,39.1
				c-0.2,0-0.5-0.4-0.6-0.6c-0.1-0.1-0.1-0.3,0-0.1c0.1,0.1,0.2,0.2,0.3,0.3c0.1,0,0.1,0.1,0.2,0.1c0.1,0,0.1,0.1,0.2,0.2
				c0.1,0.1,0.1,0.1,0,0.1C13.7,39.1,13.7,39.1,13.6,39.1 M15.8,38.5c0-0.1,0.1-0.2,0.1-0.1C15.9,38.4,15.9,38.4,15.8,38.5
				 M17.2,38.8c0,0-0.2,0-0.2-0.1c0,0,0-0.1,0-0.2c0,0-0.1-0.1-0.1-0.1c0,0,0.1-0.2,0.1-0.2c0.1,0,0.2,0.2,0.2,0.2
				C17.3,38.6,17.3,38.7,17.2,38.8 M10.7,39.3c0.3,0,0.5-0.1,0.8-0.3c0.1-0.1,0.2-0.2,0.2-0.4c0-0.1,0-0.1,0.1-0.2c0,0,0-0.2,0-0.2
				v0c0.6,0.2,0.8,0.9,0.5,1.4c-0.1,0.2-0.4,0.5-0.7,0.5c-0.1,0-0.3,0-0.4,0c-0.1,0-0.3-0.1-0.3-0.2c-0.2-0.2-0.4-0.3-0.6-0.5
				c0,0-0.3-0.3-0.2-0.3c0,0,0.3,0.1,0.4,0.2C10.5,39.3,10.6,39.3,10.7,39.3 M13.8,38.1C13.8,38.1,13.8,38.1,13.8,38.1 M11.2,38.1
				c0.1,0,0.1,0,0.1,0.1c0,0.1,0,0.1,0,0.2c0,0.1-0.1,0.3-0.2,0.4c-0.2,0.2-0.6,0.1-0.8,0c0,0-0.1-0.1-0.2-0.1c0,0,0-0.1,0.1-0.2
				c0-0.1,0.1-0.3,0.2-0.3C10.7,38.1,10.9,38.1,11.2,38.1 M9.8,38.3c-0.1-0.1-0.1-0.2-0.2-0.3c0.1,0,0.2,0.1,0.3,0.1
				C9.9,38.1,9.8,38.2,9.8,38.3 M16.7,38.4c-0.2-0.1-0.4-0.2-0.5-0.4c0,0,0,0,0.1,0.1c0.1,0,0.1,0,0.1,0c0.1,0,0.2,0,0.2,0.1
				c0.1,0,0.2,0.1,0.2,0.1C16.8,38.2,16.7,38.3,16.7,38.4 M17.5,37.9c0,0,0.1-0.1,0.1-0.1c0,0.1-0.1,0.2-0.1,0.3c0,0.1-0.1,0-0.2,0
				c-0.1,0-0.2-0.1-0.1-0.2C17.3,37.8,17.4,37.9,17.5,37.9 M13.7,38.2c-0.1-0.1-0.2-0.1-0.2-0.2c-0.1,0-0.3-0.1-0.1-0.2
				c0.1-0.1,0.4,0.3,0.5,0.3C13.8,38.2,13.7,38.2,13.7,38.2 M10.7,37.7C10.7,37.7,10.7,37.6,10.7,37.7
				C10.7,37.7,10.7,37.7,10.7,37.7 M9.9,37.5c0.1,0,0.2,0.1,0.4,0.1c-0.1,0.1-0.1,0.1-0.2,0.1C10,37.6,9.9,37.6,9.9,37.5
				C9.8,37.5,9.8,37.5,9.9,37.5 M15.2,38.3C15.2,38.2,15.2,38.2,15.2,38.3c0-0.2,0-0.3,0.1-0.3c0.1,0,0.1-0.1,0.2-0.2
				c0-0.1,0.1-0.2,0.2-0.2c0.1,0,0.2,0.2,0.3,0.2c-0.1,0.1-0.2,0-0.2,0.1c-0.1,0.1-0.1,0.2-0.1,0.2c0,0-0.2,0-0.2,0
				c0,0.1,0.1,0.1,0.1,0c-0.1,0-0.1-0.1,0,0c0.1,0,0,0.1,0.1,0.1c0,0.1-0.1,0.2-0.2,0.3C15.4,38.4,15.3,38.3,15.2,38.3
				c0.1,0,0.3,0,0.3,0C15.5,38.2,15.2,38.3,15.2,38.3 M11.6,37.7c-0.1-0.1-0.2-0.2-0.3-0.3c-0.1,0-0.1-0.1-0.2-0.1
				c-0.1,0-0.1,0-0.1-0.1c0-0.1,0.1-0.1,0.1-0.2c0-0.1,0.1,0,0.2,0.1c0.1,0.1,0.2,0.2,0.3,0.2c0.2,0.1,0.3,0.2,0.5,0.4
				c0.1,0.1,0.2,0.1,0.3,0.2c0.1,0.1,0.2,0.1,0.2,0.2C12.3,37.9,11.9,37.6,11.6,37.7 M16,37.5c-0.1-0.1-0.2-0.1-0.2-0.2
				c0-0.1,0-0.1,0-0.2c0,0,0-0.1,0.1-0.1c0.1,0,0.2,0.2,0.3,0.2C16.2,37.2,16.1,37.4,16,37.5 M14.3,37.2c-0.1-0.1-0.2-0.1-0.2-0.2
				c0,0-0.1-0.1-0.1-0.1c-0.1,0,0-0.1,0-0.1c0,0,0.4,0.3,0.5,0.3C14.4,37.2,14.4,37.2,14.3,37.2 M11.9,36.9c-0.1,0-0.1-0.1-0.1-0.1
				c0,0,0.1-0.1,0.1,0c0,0.1,0.2,0.1,0.2,0.2c0.1,0.1,0.2,0.1,0.3,0.2c0.1,0.1,0.2,0.1,0.3,0.2c0,0,0.1,0.1,0.1,0.1
				c0,0-0.1,0.1-0.1,0.1c-0.1-0.1-0.3-0.2-0.5-0.3c-0.1-0.1-0.2-0.1-0.2-0.2C12,37,11.9,36.9,11.9,36.9 M10.7,36.6
				c0.1,0,0.1,0.1,0.1,0.1c0,0.1-0.1,0.1-0.1,0.2c0,0-0.1,0.2-0.1,0.2c-0.1,0-0.1,0-0.2,0C10.4,37,10.6,36.7,10.7,36.6 M11.5,36.6
				c-0.1,0-0.1-0.2,0-0.2C11.6,36.5,11.5,36.6,11.5,36.6 M10,36.9c-0.1-0.2,0.1-0.5,0.3-0.5c0.1,0,0.1,0,0,0.1
				c0,0.1-0.1,0.1-0.1,0.2C10.1,36.8,10,36.9,10,36.9 M12.5,36.5c-0.1-0.1-0.2-0.1-0.2-0.2C12.4,36.3,12.6,36.4,12.5,36.5 M13,36.1
				c0.1,0,0.2,0.1,0.3,0.2c0,0,0.1,0.1,0.1,0.1c0,0,0.1,0,0,0.1c0,0-0.2-0.2-0.3-0.2C13.1,36.3,12.8,36.1,13,36.1 M11.1,36.3
				c-0.1,0-0.1-0.2,0-0.2C11.2,36.1,11.1,36.3,11.1,36.3 M16.3,37c-0.1,0-0.1-0.1-0.2-0.1c-0.1-0.1-0.1,0,0-0.1
				c0-0.2,0.2-0.1,0.3-0.2c0.3-0.1,0.5-0.1,0.8-0.3c0.2-0.1,0.3-0.3,0.4-0.5c0.1,0.6,0.1,1.1,0,1.7c0,0.1,0,0.1-0.1,0.1
				c-0.1,0-0.1,0-0.2,0c-0.1,0-0.2,0-0.4-0.1c-0.1,0-0.3-0.1-0.3,0c0,0.1,0.2,0.1,0.3,0.2c0,0-0.1,0.1-0.1,0.1
				c-0.1,0-0.1-0.1-0.1-0.1c-0.1,0-0.3-0.2-0.3-0.2c0-0.1,0.1,0,0.1-0.1c0,0,0,0-0.1-0.1c0,0,0-0.1,0-0.1c0,0,0-0.1,0-0.2
				c0,0,0,0,0-0.1c0,0-0.1,0-0.1-0.1c0,0,0.1,0,0.1,0C16.5,37.1,16.4,37.1,16.3,37C16.3,37.1,16.3,37,16.3,37 M11.9,36
				c-0.1,0,0-0.1,0-0.2c0.1,0.2,0.2,0.3,0.4,0.4c0,0,0,0,0,0c0,0,0,0-0.1,0c0,0-0.1-0.1-0.1-0.1C12,36.1,12,36,11.9,36 M15,36.2
				c-0.1-0.1-0.2-0.1-0.2-0.2c0,0-0.1-0.1-0.1-0.1c0,0,0-0.1,0-0.1c0.1,0.1,0.1,0.1,0.2,0.2C14.9,36.1,15.1,36.1,15,36.2 M10,35.9
				c0.1-0.1,0.5-0.1,0.7-0.1c0,0,0,0.1-0.1,0.1c0,0-0.1,0-0.2-0.1C10.3,35.9,10.1,35.9,10,35.9 M12.7,35.8
				C12.7,35.8,12.7,35.7,12.7,35.8C12.7,35.7,12.7,35.7,12.7,35.8C12.7,35.8,12.7,35.8,12.7,35.8 M8.6,37.3
				c-0.1-0.2-0.6-1.6-0.5-1.6c0,0,0.2,0.1,0.2,0.1c0.1,0,0.2,0,0.3-0.1c-0.1,0.2-0.1,0.6-0.1,0.8c0,0.1,0,0.3,0,0.4
				C8.6,37.1,8.6,37.3,8.6,37.3 M12.4,35.8c-0.1-0.1,0-0.3,0.1-0.2c0.1,0.1,0.1,0.2,0.1,0.3C12.5,35.8,12.4,35.8,12.4,35.8
				 M11.4,35.7c-0.1-0.1,0-0.2,0.1-0.2C11.7,35.5,11.5,35.7,11.4,35.7 M18.4,36.2c-0.1-0.2-0.1-0.5-0.1-0.7c0-0.2,0-0.1,0.1,0
				c0.1,0.1,0.2,0.1,0.3,0.1C18.5,35.8,18.5,36.1,18.4,36.2 M11.6,35.3C11.7,35.2,11.7,35.3,11.6,35.3c0,0.2,0,0.2-0.1,0.1
				C11.6,35.4,11.6,35.3,11.6,35.3 M12.4,35.1c0.1-0.1,0-0.1,0.1-0.1c0,0,0.1,0.1,0.1,0.1c0.1,0,0.1,0.1,0.2,0.1
				c0,0,0.1,0.1,0.1,0.1c0,0,0.1,0,0.1,0c0.2,0.2,0.4,0.3,0.7,0.5c0.1,0,0.1,0.1,0.2,0.1c0,0,0.2,0.1,0.1,0.1
				c-0.1,0-0.1-0.1-0.2-0.1c-0.1,0-0.1-0.1-0.2-0.1c-0.2-0.2-0.5-0.3-0.7-0.5c-0.1-0.1-0.2-0.1-0.2-0.2
				C12.6,35.1,12.4,35.1,12.4,35.1 M11.8,35.2c0-0.1,0.1-0.3,0.2-0.3c0.1,0,0,0.2,0,0.2C11.8,35.1,11.8,35.2,11.8,35.2 M13.2,34.9
				c0,0-0.1-0.1,0-0.1c0,0,0.1,0.1,0.1,0.1c0.1,0.1,0.2,0.2,0.3,0.2c0.2,0.2,0.4,0.3,0.7,0.5c0,0-0.1,0-0.1,0.1
				c-0.2-0.1-0.3-0.3-0.5-0.4c-0.1-0.1-0.2-0.1-0.3-0.2C13.4,35,13.2,34.9,13.2,34.9 M15.6,36c-0.1-0.2-0.4-0.4-0.6-0.5
				c-0.1-0.1-0.1-0.1-0.1-0.1c0-0.1,0.1-0.1,0.1-0.2c0.1-0.1,0.2-0.2,0.2-0.4c0-0.1,0.1-0.2,0.1-0.1c0.1,0,0.1,0.1,0.2,0.1
				c0.1,0.1,0.2,0.2,0.4,0.3c0.2,0.2,0.2,0.6,0.1,0.8C16,35.9,16,36,15.9,36.1C15.8,36,15.7,36,15.6,36 M12,34.9
				c0-0.1-0.1-0.1,0-0.1c0,0,0.1-0.1,0.1-0.1C12.2,34.6,12.1,34.8,12,34.9 M13,34.7c-0.1,0-0.1-0.1-0.2-0.1
				C12.8,34.6,13,34.7,13,34.7C13,34.7,13,34.7,13,34.7 M11.9,33.9c-0.2-0.2-0.3-0.4-0.4-0.6c0.1,0.1,0.2,0.2,0.3,0.3
				C11.9,33.6,12,33.9,11.9,33.9 M13.2,34.1c-0.2-0.1,0-0.2,0.1-0.3c0.1-0.1,0.2-0.2,0.2-0.4c0,0,0.1-0.1,0.1-0.2
				c0,0,0.1,0.1,0.2,0.1c0.1,0.1,0.2,0.2,0.3,0.2c0.2,0.2,0.5,0.3,0.7,0.5c0.1,0,0.1,0.1,0.2,0.1c0.1,0.1,0.1,0.1,0.1,0.2
				c-0.1,0.1-0.2,0.2-0.2,0.4c0,0.1-0.2,0.3-0.2,0.3c-0.1,0-0.3-0.2-0.3-0.3c-0.2-0.2-0.5-0.4-0.7-0.5
				C13.5,34.3,13.3,34.1,13.2,34.1 M16.3,36.2c0.2-0.1,0.3-0.6,0.3-0.8c0-0.3-0.2-0.5-0.4-0.7c-0.1-0.1-0.3-0.3-0.5-0.4
				c0.2-0.2,0.3-0.5,0.2-0.8c0-0.1,0-0.1,0-0.2c0-0.1,0.1-0.1,0.1-0.1c0.1,0.1,0.2,0.2,0.3,0.3c0.4,0.4,0.7,0.9,1,1.4
				c0.1,0.1,0.1,0.3,0.1,0.4c0,0.1-0.1,0.3-0.2,0.4c-0.2,0.2-0.4,0.4-0.7,0.4C16.5,36.2,16.4,36.2,16.3,36.2 M9.5,35.5
				c0-0.1,0-0.3,0-0.4c0-0.2,0.1-0.3,0.2-0.4c0.2-0.2,0.3-0.5,0.5-0.7c0-0.1,0.1-0.1,0.1-0.2c0,0,0.1-0.1,0.1-0.1c0,0,0-0.1,0-0.1
				c0.1-0.1,0.2-0.2,0.2-0.4c0.1-0.1,0.2-0.2,0.3-0.2c0.1,0,0.1,0.3,0.1,0.4c0.1,0.3,0.2,0.5,0.4,0.7c0,0,0.2,0.1,0.2,0.1
				c0,0-0.1,0.1-0.1,0.2c0,0-0.1,0-0.1,0.1c0,0,0,0.1,0,0.1c0,0-0.1,0.1-0.2,0.1c-0.1,0.1-0.1,0.3-0.2,0.4c0,0.1-0.1,0.1-0.1,0.2
				c-0.1,0.1-0.1,0.1-0.2,0.1c-0.3-0.1-0.6-0.1-0.8-0.1C9.9,35.3,9.6,35.5,9.5,35.5 M15.8,33.1c0-0.1-0.1-0.1-0.1-0.2
				C15.8,32.9,15.9,33.1,15.8,33.1 M14.3,33.2c-0.1-0.1-0.2-0.2-0.3-0.3c-0.1-0.1,0.1-0.3,0.2-0.3c0.3-0.1,0.6,0,0.8,0.1
				c0.2,0.1,0.4,0.3,0.5,0.5c0.1,0.1,0.1,0.2,0.1,0.4c0,0.1-0.1,0.2-0.2,0.3c-0.1-0.1-0.3-0.3-0.5-0.4
				C14.7,33.5,14.4,33.1,14.3,33.2 M13.6,32.5c0-0.1-0.1-0.3,0-0.3c0,0,0.3,0,0.4,0.1C13.9,32.3,13.6,32.5,13.6,32.5 M12.4,34.3
				c-0.1-0.1-0.1-0.1-0.1-0.2c0-0.1,0-0.1,0-0.2c0-0.1,0-0.3-0.1-0.4c-0.1-0.3-0.3-0.5-0.6-0.6c-0.1,0-0.2-0.1-0.2-0.1
				c0,0,0-0.2,0-0.2c0.1-0.1,0.3-0.1,0.4-0.2c0.3-0.1,0.5-0.2,0.8-0.2c0.1,0,0.3-0.1,0.4,0.1c0.1,0.1,0,0.3,0,0.4
				c-0.2,0-0.5,0.3-0.6,0.5c-0.1,0.2-0.2,0.6,0,0.9C12.5,34.1,12.5,34.3,12.4,34.3 M8.9,28.4c-0.6,0-1.1,0.2-1.6,0.3
				c-0.5,0.2-1.1,0.4-1.6,0.6c-0.5,0.2-1,0.4-1.5,0.7c-0.5,0.3-1,0.5-1.5,0.8c-0.5,0.3-1,0.6-1.4,0.9c-0.2,0.2-0.5,0.3-0.7,0.6
				C0.3,32.5,0.1,32.7,0,33c-0.1,0.7,1.1,0.4,1.4,0.3c0.1,0,0.3-0.1,0.4-0.1c0.1,0,0.3,0,0.4,0.1c0.3,0,0.6,0.1,0.8,0.2
				c0.5,0.2,1,0.5,1.5,0.8c0.4,0.4,0.8,0.8,1.2,1.3c0.4,0.5,0.7,0.9,1,1.4c0.3,0.5,0.6,1,0.9,1.5c0.3,0.5,0.6,1,0.9,1.4
				c0.4,0.5,0.8,0.8,1.2,1.2c0.5,0.3,1,0.6,1.5,0.8c0.5,0.2,1.1,0.3,1.6,0.3c0.6,0,1.1-0.1,1.7-0.2c0.5-0.2,1.1-0.4,1.5-0.7
				c0.2-0.1,0.3-0.2,0.5-0.3c0,0.2,0.3,0.1,0.3,0c0,0,0.1-0.1,0.1-0.2c0-0.1-0.1-0.1-0.1-0.1c0.2-0.2,0.4-0.4,0.5-0.6
				c0.3-0.5,0.6-1,0.8-1.6c0.1-0.3,0.1-0.5,0.2-0.8c0-0.1,0-0.3,0-0.4c0-0.2,0.1-0.3,0.1-0.4c0.2-0.5,0.5-1.1,0.7-1.6
				c0.1-0.3,0.2-0.5,0.3-0.8c0.1-0.1,0.1-0.2,0.2-0.4c0-0.1,0.1-0.1,0.1-0.2c0-0.1,0-0.2,0-0.2c0.1-0.3,0.2-0.6,0.4-0.8
				c0-0.1,0.1-0.1,0.2-0.2c0,0,0.1-0.1,0.2-0.1c0.1-0.2-0.1-0.3-0.2-0.3c-0.1,0-0.3-0.2-0.4-0.1c-0.1,0.1,0,0.3,0,0.5
				c0,0.3-0.1,0.6-0.3,0.8c0,0.1-0.1,0.1-0.1,0.1c0,0.1-0.1,0.1-0.1,0.2c-0.1,0.1-0.1,0.3-0.1,0.4c-0.1,0.3-0.2,0.5-0.4,0.8
				c-0.1,0.1-0.3,0.8-0.5,0.5c-0.2-0.2-0.3-0.5-0.4-0.8c-0.1-0.1-0.1-0.3-0.2-0.4c-0.1-0.1-0.2-0.2-0.2-0.3
				c-0.2-0.2-0.3-0.5-0.5-0.7c-0.4-0.4-0.8-0.8-1.3-1.1c-0.5-0.3-1-0.5-1.6-0.6c-0.3-0.1-0.6-0.1-0.8-0.1c-0.1,0-0.1,0-0.2,0
				c0,0-0.1-0.1-0.2-0.1c-0.1-0.1-0.2-0.1-0.4-0.1c-0.3,0-0.6,0.1-0.8,0.2c-0.1,0.1-0.2,0.2-0.3,0.3c-0.1,0.1-0.2,0.2-0.3,0.3
				c-0.5,0.3-0.9,0.6-1.3,1.1c-0.2,0.2-0.4,0.4-0.5,0.7c-0.1,0.1-0.1,0.3-0.2,0.4c-0.1,0.1-0.2,0.2-0.2,0.4
				c-0.1,0.3-0.2,0.6-0.2,0.8c-0.1,0.4-0.5,0.3-0.6,0c-0.1-0.3-0.1-0.6-0.2-0.8c0-0.2-0.1-0.2-0.2-0.4c0-0.1-0.1-0.3-0.1-0.4
				c-0.1-0.6-0.1-1.2,0-1.8c0.1-0.6,0.3-1.1,0.6-1.6c0.1-0.1,0.1-0.2,0.2-0.4c0.1-0.1,0.2-0.2,0.3-0.3c0.2-0.2,0.4-0.4,0.6-0.6
				c0.1-0.2,0.2-0.3,0-0.5C9.3,28.5,9,28.4,8.9,28.4"/>
		</g>
	</g>
</g>
<g>
	<defs>
		<rect id="SVGID_19_" x="24.1" y="24.2" width="18" height="22.5"/>
	</defs>
	<clipPath id="SVGID_20_">
		<use xlink:href="#SVGID_19_"  style="overflow:visible;"/>
	</clipPath>
	<g class="st14">
		<defs>
			<rect id="SVGID_21_" x="24.1" y="24.2" width="18" height="22.5"/>
		</defs>
		<clipPath id="SVGID_22_">
			<use xlink:href="#SVGID_21_"  style="overflow:visible;"/>
		</clipPath>
		<g class="st15">
			<defs>
				<rect id="SVGID_23_" x="24.1" y="24.2" width="18" height="22.5"/>
			</defs>
			<clipPath id="SVGID_24_">
				<use xlink:href="#SVGID_23_"  style="overflow:visible;"/>
			</clipPath>
			<path class="st16" d="M36.5,31.3c0,0,0-0.2,0-0.2s-0.3,0.1-0.7,0.1c-0.2,0-0.4,0.1-0.6,0.1c-0.2,0-0.3,0-0.3,0s0,0,0,0.1
				c0,0,0,0.1,0,0.1L36.5,31.3C36.5,31.4,36.5,31.4,36.5,31.3 M33.3,31.5l0,0.1l1-0.1v0l-0.1,0l0.1,0l0,0L33.3,31.5z M33,39.2
				c-0.1,0-0.3,0-0.3,0c0,0-0.1-0.1-0.1-0.1l-0.7,1.6l0,1.9l1.3-3.4C33.2,39.3,33.1,39.2,33,39.2 M32.2,39l-0.2,0l0,1.5l0.6-1.4
				L32.2,39z M31.9,43.2l-0.1,0.3l0.1,0.1L31.9,43.2z M31.9,41l-0.2,0.4l-0.1,2l0.1,0l0.2-0.5L31.9,41z M31.9,39.1L31.9,39.1
				l-0.1,2.1l0.1-0.4L31.9,39.1z M31.1,39.1L31.1,39.1L31,42.9l0.1-0.3L31.1,39.1z M31.1,43.2l0-0.3L31,43.1L31.1,43.2z M38,31.4
				c0.4,0,1.3,0.1,1.8,0.2c0.2,0,0.6,0.1,1,0.2c0.4,0.1,0.8,0.2,1,0.3c0.2,0.1,0.2,0.2,0.2,0.2c0,0.1,0,2,0,2.2c0,0.2,0,0.9,0,0.9
				c0,0,0,0.1,0,0.1c-0.1,0.1-0.1,0.1-0.1,0.1l0,0.1c0,0,0,0-0.1,0.1c-0.1,0-0.1,0-0.1,0l0,0.3l-0.5,0c0,0,0,0.1,0,0.2
				c0,0,0,0-0.1,0c0,0-0.4,0-0.4,0c0,0-0.1,0.1-0.2,0.2c-0.1,0.1-0.1,0.2-0.2,0.3c0,0,0,0-0.1,0c0,0.1-0.1,1-0.1,1.3
				c0,0.3-0.2,3.6-0.2,3.7c0,0,0,0,0,0l0,0.3l-0.2,0l0,0c0,0,0,0.1,0.1,0.1c0,0,0.1,0.1,0.1,0.2c0,0.1-0.1,0.2-0.2,0.2
				c-0.1,0-0.2,0-0.3,0c-0.1,0-0.1-0.1-0.1-0.2c0,0,0-0.1,0-0.1c0,0-0.1-0.1-0.1-0.1l0-0.1L39,42l0-0.3l0,0c0,0-0.1-1.9-0.1-2.2
				c0-0.3-0.1-2.3-0.1-2.3s-0.1,0-0.1,0c-0.1,0-0.2,0-0.3,0.1c-0.1,0.1-0.2,0.4-0.2,0.4l-0.1,0l0,0.6c0,0-0.9,0.1-1.3,0.1
				c-0.1,0-0.1,0-0.1,0s0,0.2,0,0.3c0,0,0,0,0,0c0,0-0.2,0-0.4,0.1c-0.2,0.1-0.4,0.2-0.6,0.3c-0.1,0.1-0.2,0.2-0.3,0.3
				c-0.1,0.1-0.2,0.3-0.2,0.3c0,0,0,0-0.1,0c0,0.1-0.1,1-0.1,1.2c0,0.3-0.1,2.8-0.2,3.1c0,0.3-0.1,1.4-0.1,1.4l0,0l0,0.3l-0.1,0V46
				c0,0,0,0.2,0,0.2c0,0.1,0,0.1,0,0.1c0,0,0,0.1,0,0.1c0,0,0,0-0.1,0c0,0.1,0,0.1-0.1,0.2c0,0-0.2,0-0.2,0c-0.1,0-0.1,0-0.2,0
				c0,0,0-0.1-0.1-0.2c0,0,0,0,0,0c0,0,0-0.1,0-0.1c0,0,0-0.1,0-0.2c0-0.1,0-0.3,0-0.3l-0.1-0.1l0-0.3l0,0c0,0,0-1.2-0.1-1.5
				c0-0.3-0.1-1.6-0.1-1.9c0-0.3,0-1.3-0.1-1.6c0-0.3,0-0.7,0-0.7s0,0-0.1,0c0,0,0-0.1,0-0.1c0,0-0.1-0.1-0.1-0.2
				c0,0-0.1-0.1-0.1-0.1L32,43l0,0.6c0,0,0,0,0.1,0c0,0,0,0,0,0s0,0,0.1,0c0,0,0,0,0,0c0,0,0,0.6,0,0.6l-0.1,0v0.1l-0.8,0.1
				l-0.5-0.3c0,0-0.1,0-0.1,0c0,0-0.1,0.1-0.1,0.1c0,0-0.2,0-0.3,0c0,0,0,0-0.1,0c0,0-0.1,0-0.1,0c0,0,0-0.1,0.1-0.1
				c0,0,0.1-0.1,0.2-0.1c0,0-0.1-0.1-0.1-0.1s-0.2,0-0.3,0c-0.1,0-0.2,0-0.3,0c-0.1,0-0.2,0-0.2,0c0,0,0-0.1,0-0.1
				c0,0,0.1-0.1,0.1-0.1c0,0,0.4,0,0.4,0v0c0,0-0.1,0-0.3,0c-0.1,0-0.3,0-0.4,0c-0.1,0-0.2,0-0.2-0.1c0,0,0-0.1,0.1-0.1
				c0,0,0.1,0,0.1,0c0.1,0,0.2,0,0.3,0c0.1,0,0.3,0,0.3,0s0-0.6,0-0.6c0,0,0,0,0,0c0,0,0.1,0,0.1,0l0,0c0,0,0.2-0.1,0.2-0.1
				c0,0,0.1,0,0.1,0l0-4.2L28.4,38l-0.2,4.2l0,0v0.3l-0.2,0l0,0.1c0,0-0.1,0.1-0.1,0.1c0,0,0,0.1,0,0.1s0,0.1,0,0.2
				c0,0-0.1,0.1-0.1,0.1c-0.1,0-0.2,0.1-0.2,0.1c0,0-0.1,0-0.2-0.1c-0.1-0.1,0-0.2,0-0.2c0,0,0-0.1,0.1-0.1c0-0.1,0-0.1,0-0.1l0.1,0
				l-0.1-0.1l0-0.3l0,0c0,0-0.1-1.4-0.1-1.7c0-0.3-0.1-2.2-0.1-2.5c0-0.3,0-0.5,0-0.5s-1.5-0.6-1.7-0.7c-0.1-0.1-0.6-0.3-1-0.4
				c-0.2-0.1-0.3-0.1-0.3-0.1l0-0.5l-0.1,0c0,0,0-0.7,0-0.8c0-0.1,0-0.3,0.2-0.3c0.1-0.1,0.2-0.1,0.3-0.1c0.1,0,0.4,0,0.5-0.1
				c0.1,0,0.3-0.1,0.5-0.2c0.1-0.1,0.2-0.4,0.3-0.5c0-0.2,0.1-0.4,0.1-0.6c0-0.2,0-0.3,0-0.3c0,0-0.1-0.2-0.1-0.2c0,0,0-0.4,0-0.5
				c0,0,0,0,0,0c0,0,1.6-0.1,1.8-0.1c0.2,0,1-0.1,1-0.1s0.1-0.1,0.1-0.3c0.1-0.2,0.2-0.6,0.2-0.7c0-0.1,0-0.2,0.1-0.3
				c0,0,0.1-0.1,0.2-0.2c0.1-0.1,0.1-0.1,0.2-0.1c0,0,0.1,0,0.1,0c0,0,0.1,0.1,0.3,0.1c0.1,0,0.3,0,0.3,0s0.4-0.4,0.6-0.6
				c0.1-0.1,0.5-0.6,0.7-0.7c0.1-0.1,0.5-0.5,0.6-0.7c0.1-0.1,0.8-0.8,0.9-0.9c0.1-0.1,1-1,1.1-1.1c0.1-0.1,0.8-0.8,0.9-0.9
				c0.1-0.1,0.8-0.8,0.9-0.9c0.1-0.1,0.2-0.3,0.3-0.3c0,0,0,0,0.1,0c0.1,0,1.4,0,1.6,0c0.2,0,2.4,0,2.5,0c0,0,0,0,0,0
				c0,0,0,0.2,0,0.2c0,0,0,0-0.1,0.1c-0.1,0.1-1.6,1.5-1.6,1.5s0,0,0.1,0.1c0.1,0.1,0.3,0.2,0.6,0.3c0.3,0.1,0.9,0.2,1.2,0.3
				c0.1,0,0.4,0.1,0.6,0.2c0.1,0.1,0.3,0.2,0.3,0.3c0.1,0.1,0.1,0.2,0.2,0.3c0,0.1,0.1,0.3,0,0.5c0,0,0,0.1-0.1,0.2
				c-0.1,0.1-0.2,0.3-0.3,0.4c-0.3,0.3-0.7,0.6-0.7,0.6s0,0,0,0c0,0,0,0,0,0s-0.6,0.5-1.3,0.8c-0.6,0.3-1.2,0.5-1.7,0.7
				c-0.4,0.1-0.6,0.2-0.6,0.2l0.1,0.3C37,31.4,37.6,31.4,38,31.4"/>
		</g>
	</g>
</g>
</svg>
