<?xml version="1.0" encoding="utf-8"?>
<!-- Generator: Adobe Illustrator 21.1.0, SVG Export Plug-In . SVG Version: 6.00 Build 0)  -->
<svg version="1.1" id="Layer_1" xmlns="http://www.w3.org/2000/svg" xmlns:xlink="http://www.w3.org/1999/xlink" x="0px" y="0px"
	 viewBox="0 0 226.8 121.3" style="enable-background:new 0 0 226.8 121.3;" xml:space="preserve">
<style type="text/css">
	.st0{fill:#3C3C3B;}
</style>
<g>
	<path class="st0" d="M30.9,12.6c-1.4-5.7-6.1-9.1-12.4-9.1c-8.9,0-14.4,7-14.4,18.2c0,10.9,5.5,17.8,14.3,17.8
		c7.1,0,12.1-4.6,13.3-12.2h4C34.3,37.3,28,43,18.4,43C7,43,0,34.8,0,21.5S7.2,0,18.8,0c8.6,0,14.8,4.8,16.5,12.6H30.9z"/>
	<path class="st0" d="M79.9,21.8c0,12.6-7.8,21.2-19.2,21.2c-11.5,0-19.2-8.6-19.2-21.5C41.5,8.6,49.2,0,60.6,0
		C72.3,0,79.9,8.5,79.9,21.8z M49.4,8.9c-2.4,3-3.7,7.5-3.7,12.6c0,10.9,6,18,15,18c9,0,15-7.2,15-17.8c0-5.4-1.2-9.7-3.7-12.8
		c-2.6-3.3-6.9-5.4-11.4-5.4C56.2,3.5,52.1,5.5,49.4,8.9z"/>
	<path class="st0" d="M105.2,42.1L91.6,6.4c0.2,7,0.4,15.1,0.4,22.2v13.6h-3.9V0.9h5.2l13.9,36.7l14-36.7h5v41.2h-3.9V31.2
		c0-9.8,0.1-19.6,0.3-24.4L109,42.1H105.2z"/>
	<path class="st0" d="M140.3,42.1h-4.2V0.9h4.2V42.1z"/>
	<path class="st0" d="M177.8,42.1L153.6,5.9c0.2,2.3,0.2,4.3,0.2,6.5l0.1,5v5.1v19.6h-3.7V0.9h4.3l24.1,36
		c-0.2-3.3-0.3-11.7-0.3-16.9V0.9h3.7v41.2H177.8z"/>
	<path class="st0" d="M226.8,21.1v21h-3.3v-6.9c-3.8,5.4-8.1,7.8-14.3,7.8c-11.3,0-18.8-8.5-18.8-21.4c0-13.1,7.6-21.6,19.4-21.6
		c9,0,15.2,4.9,16.5,13.1h-4c-1.4-6.1-5.9-9.6-12.5-9.6c-9.3,0-15.3,7-15.3,17.8s6,18.1,14.8,18.1c5,0,9.4-2.5,11.6-6.5
		c1.4-2.5,1.9-4.8,2.2-8.6h-13.9v-3.3H226.8z"/>
</g>
<g>
	<path class="st0" d="M52.1,73.5v-5.3c0-3.9-1.5-6-4.4-6c-2.8,0-4.3,1.7-4.3,4.6c0,3.8,1.1,5.2,8.9,12.4
		C63.4,89.3,66.4,94.2,66.4,103c0,10.9-6.4,16.9-17.8,16.9c-8.5,0-15-3.1-17.6-8.3c-1.4-3-1.9-5.3-1.9-11v-5h14v6.1
		c0,4.6,1.6,6.9,4.9,6.9c2.9,0,4.5-1.9,4.5-5.1c0-4.6-1.8-7.3-7.8-12.5c-11.7-9.9-15-15.1-15-23.5c0-10.4,6.6-16.7,17.5-16.7
		c8.7,0,15.6,4.2,17.4,10.6c0.6,2.5,0.8,4.8,0.9,12.1H52.1z"/>
	<path class="st0" d="M72.7,72.4c0-8.5,1.1-13.1,3.8-16.4c2.7-3.3,8.2-5.2,14.5-5.2c7.4,0,13,3,15.8,8.5c1.7,3.3,2.1,5.7,2.1,12.8
		v24.2c0,9.2-0.5,12.6-2.4,15.8c-3.1,4.9-8.7,7.8-15.6,7.8c-7.4,0-13.6-2.9-15.9-7.5c-1.3-2.5-1.6-3.9-2-9.6
		c-0.2-2.6-0.3-5.2-0.3-6.5V72.4z M95.5,72.4c0-8.5-0.9-10.6-4.6-10.6c-1.8,0-3.3,1-3.8,2.6c-0.5,1.6-0.5,1.8-0.6,8v24
		c0.1,8.1,0.1,8.3,0.6,9.7c0.7,1.9,1.9,2.8,3.7,2.8c1.9,0,3.2-0.8,4-2.5c0.4-1.2,0.5-2.4,0.7-9.9V72.4z"/>
	<path class="st0" d="M116.1,72.4c0-8.5,1.1-13.1,3.8-16.4c2.7-3.3,8.2-5.2,14.5-5.2c7.4,0,13,3,15.8,8.5c1.7,3.3,2.1,5.7,2.1,12.8
		v24.2c0,9.2-0.5,12.6-2.4,15.8c-3.1,4.9-8.7,7.8-15.6,7.8c-7.4,0-13.6-2.9-15.9-7.5c-1.3-2.5-1.6-3.9-2-9.6
		c-0.2-2.6-0.3-5.2-0.3-6.5V72.4z M138.9,72.4c0-8.5-0.9-10.6-4.6-10.6c-1.8,0-3.3,1-3.8,2.6c-0.5,1.6-0.5,1.8-0.6,8v24
		c0.1,8.1,0.1,8.3,0.6,9.7c0.7,1.9,1.9,2.8,3.7,2.8c1.9,0,3.2-0.8,4-2.5c0.4-1.2,0.5-2.4,0.7-9.9V72.4z"/>
	<path class="st0" d="M198.7,118.7h-15.6l-9.3-36.3v36.3h-13.6V52h15.3l9.4,35.7V52h13.9V118.7z"/>
</g>
</svg>
