<?xml version="1.0" encoding="utf-8"?>
<!-- Generator: Adobe Illustrator 21.1.0, SVG Export Plug-In . SVG Version: 6.00 Build 0)  -->
<svg version="1.1" id="Layer_1" xmlns="http://www.w3.org/2000/svg" xmlns:xlink="http://www.w3.org/1999/xlink" x="0px" y="0px"
	 viewBox="0 0 3071.4 1145.8" style="enable-background:new 0 0 3071.4 1145.8;" xml:space="preserve">
<style type="text/css">
	.st0{fill:#3C3C3B;}
	.st1{clip-path:url(#SVGID_2_);fill:#3C3C3B;}
	.st2{fill:#E68022;}
	.st3{fill:#FFFFFF;}
	.st4{fill:#6EA092;}
	.st5{fill:#D2BC67;}
	.st6{clip-path:url(#SVGID_4_);}
	.st7{clip-path:url(#SVGID_6_);}
	.st8{clip-path:url(#SVGID_8_);fill-rule:evenodd;clip-rule:evenodd;fill:#7A1617;}
	.st9{clip-path:url(#SVGID_10_);}
	.st10{clip-path:url(#SVGID_12_);}
	.st11{clip-path:url(#SVGID_14_);fill:#684A4E;}
	.st12{clip-path:url(#SVGID_16_);}
	.st13{clip-path:url(#SVGID_18_);}
	.st14{clip-path:url(#SVGID_20_);fill:#2B544D;}
	.st15{clip-path:url(#SVGID_22_);}
	.st16{clip-path:url(#SVGID_24_);}
	.st17{clip-path:url(#SVGID_26_);fill-rule:evenodd;clip-rule:evenodd;fill:#6A5522;}
</style>
<path class="st0" d="M1248.2,1005.5l-16-57.1h-106.4l-17,57.1h-88.9l125.8-383.4h65.6l125.8,383.4H1248.2z M1180.7,767.5
	l-31.1,102.3h60.2L1180.7,767.5z"/>
<g>
	<defs>
		<rect id="SVGID_1_" x="-215.7" y="-111.5" width="3486.6" height="1644.1"/>
	</defs>
	<clipPath id="SVGID_2_">
		<use xlink:href="#SVGID_1_"  style="overflow:visible;"/>
	</clipPath>
	<path class="st1" d="M1442.1,1008.7c-40.3,0-70.9-15.1-96.2-43.1c-36.4-40.4-35-94.2-35-151.9c0-57.6-1.5-111.5,35-151.9
		c25.2-28,55.8-43.1,96.2-43.1c65.6,0,118.5,40.4,131.2,124.9h-86.5c-5.3-21.5-16-40.9-44.2-40.9c-15.5,0-27.2,7-33.5,16.2
		c-7.8,11.3-13.1,24.8-13.1,94.8c0,70,5.3,83.5,13.1,94.8c6.3,9.1,18,16.2,33.5,16.2c28.2,0,38.9-19.4,44.2-40.9h86.5
		C1560.6,968.3,1507.6,1008.7,1442.1,1008.7"/>
	<path class="st1" d="M1775.5,1005.5l-16-57.1h-106.4l-17,57.1h-88.9l125.8-383.4h65.6l125.8,383.4H1775.5z M1708,767.5l-31.1,102.3
		h60.2L1708,767.5z"/>
	<path class="st1" d="M2076.6,967.8c-23.8,26.4-57.3,37.7-93.3,37.7h-128.2V622.1h128.2c35.9,0,69.5,11.3,93.3,37.7
		c40.3,44.7,35.9,93.7,35.9,154C2112.6,874.1,2117,923.1,2076.6,967.8 M2018.3,727.6c-7.8-12.9-19.4-21.5-40.8-21.5h-37.4v215.4
		h37.4c21.4,0,33-8.6,40.8-21.5c6.8-10.8,9.2-21,9.2-86.2C2027.6,749.2,2025.2,738.4,2018.3,727.6"/>
	<polygon class="st1" points="2124.2,1005.5 2124.2,622.1 2359.3,622.1 2359.3,706.1 2209.2,706.1 2209.2,770.2 2337.5,770.2 
		2337.5,854.2 2209.2,854.2 2209.2,921.5 2359.3,921.5 2359.3,1005.5 	"/>
	<polygon class="st1" points="2610,1005.5 2610,821.9 2560.9,916.6 2506.5,916.6 2457.4,821.9 2457.4,1005.5 2372.4,1005.5 
		2372.4,622.1 2456,622.1 2533.7,791.2 2611.4,622.1 2694.9,622.1 2694.9,1005.5 	"/>
	<polygon class="st1" points="2895.1,849.3 2895.1,1005.5 2810.1,1005.5 2810.1,849.3 2705.7,622.1 2798.4,622.1 2852.8,760 
		2906.8,622.1 2999.5,622.1 	"/>
</g>
<g>
	<path class="st0" d="M1074.6,304.7v185.8h-23.2V113.7h23.2v171h240.7v-171h23.2v376.8h-23.2V304.7H1074.6z"/>
</g>
<g>
	<path class="st0" d="M1791.3,302.1c0,27.4-4,53.2-12.1,77.3c-8.1,24.1-19.8,45-35.1,62.8c-15.3,17.8-34,31.8-56.2,42
		c-22.2,10.2-47.3,15.3-75.5,15.3c-28.2,0-53.4-5.1-75.7-15.3c-22.3-10.2-41.2-24.2-56.5-42c-15.3-17.8-27-38.7-35.1-62.8
		c-8.1-24.1-12.1-49.9-12.1-77.3c0-27.4,4-53.2,12.1-77.3c8.1-24.1,19.8-45,35.1-62.8c15.3-17.8,34.1-31.8,56.5-42
		c22.3-10.2,47.6-15.3,75.7-15.3c28.1,0,53.3,5.1,75.5,15.3c22.2,10.2,40.9,24.2,56.2,42c15.3,17.8,27,38.7,35.1,62.8
		C1787.3,248.9,1791.3,274.6,1791.3,302.1z M1456.2,302.1c0,24.3,3.5,47.2,10.6,68.6c7,21.5,17.2,40.2,30.6,56.2
		c13.4,16,29.7,28.8,49.1,38.3c19.3,9.5,41.3,14.3,66,14.3c24.6,0,46.5-4.8,65.7-14.3c19.2-9.5,35.4-22.2,48.8-38.3
		c13.4-16,23.6-34.7,30.6-56.2c7-21.5,10.6-44.3,10.6-68.6c0-24.3-3.5-47.1-10.6-68.6c-7-21.5-17.2-40.2-30.6-56.2
		c-13.4-16-29.6-28.8-48.8-38.3c-19.2-9.5-41.1-14.3-65.7-14.3c-24.6,0-46.6,4.7-66,14.3c-19.4,9.5-35.7,22.3-49.1,38.3
		c-13.4,16-23.6,34.8-30.6,56.2C1459.7,254.9,1456.2,277.8,1456.2,302.1z"/>
</g>
<g>
	<path class="st0" d="M2212.5,305.8v184.7h-20.1v-80.2h-1.1c-4.6,13.7-11.4,26.1-20.6,37.2c-9.2,11.1-20,20.4-32.5,28
		c-12.5,7.6-26.4,13.5-41.7,17.7c-15.3,4.2-31.2,6.3-47.8,6.3c-28.5,0-53.8-5.1-75.7-15.3c-22-10.2-40.6-24.1-55.7-41.7
		c-15.1-17.6-26.6-38.3-34.3-62c-7.7-23.8-11.6-49.2-11.6-76.3c0-26.7,4-52.2,11.9-76.3c7.9-24.1,19.4-45.3,34.6-63.6
		c15.1-18.3,33.7-32.8,55.7-43.5c22-10.7,47.2-16.1,75.7-16.1c19.3,0,37.8,2.8,55.4,8.4c17.6,5.6,33.3,13.9,47.2,24.8
		c13.9,10.9,25.6,24.1,35.1,39.6c9.5,15.5,15.8,33.1,19,52.8H2184c-8.8-32.7-24.7-58.5-47.8-77.3c-23-18.8-51.8-28.2-86.3-28.2
		c-25.3,0-47.7,4.9-67,14.8c-19.4,9.9-35.5,23-48.6,39.6c-13,16.5-22.9,35.6-29.6,57.3c-6.7,21.6-10,44.3-10,67.8
		c0,23.9,3.2,46.5,9.8,67.8c6.5,21.3,16.2,39.8,29,55.7c12.8,15.8,28.9,28.4,48.3,37.7c19.3,9.3,42,14,68.1,14
		c22.5,0,42.8-3.7,60.7-11.1c17.9-7.4,33.2-17.8,45.7-31.1c12.5-13.4,21.9-29.5,28.2-48.3c6.3-18.8,9-39.8,7.9-63.1h-138.8v-20.1
		H2212.5z"/>
	<path class="st0" d="M2457.9,113.7l148.8,376.8H2582l-47.5-120.9H2354l-48,120.9h-24.8l151.5-376.8H2457.9z M2527.1,349.6
		l-80.8-213.2h-1.1l-83.9,213.2H2527.1z"/>
</g>
<g>
	<path class="st0" d="M2679.1,113.7h29l238,345.7h1.1V113.7h23.2v376.8H2943l-239.6-348.3h-1.1v348.3h-23.2V113.7z"/>
</g>
<rect x="71.8" y="119.1" class="st2" width="443.1" height="443.1"/>
<rect x="515" y="119.1" class="st3" width="443.1" height="443.1"/>
<rect x="71.8" y="562.3" class="st4" width="443.1" height="443.1"/>
<rect x="515" y="562.3" class="st5" width="443.1" height="443.1"/>
<g>
	<defs>
		<rect id="SVGID_3_" x="94.7" y="153.8" width="401.7" height="377.1"/>
	</defs>
	<clipPath id="SVGID_4_">
		<use xlink:href="#SVGID_3_"  style="overflow:visible;"/>
	</clipPath>
	<g class="st6">
		<defs>
			<rect id="SVGID_5_" x="94.7" y="153.8" width="401.8" height="377.1"/>
		</defs>
		<clipPath id="SVGID_6_">
			<use xlink:href="#SVGID_5_"  style="overflow:visible;"/>
		</clipPath>
		<g class="st7">
			<defs>
				<rect id="SVGID_7_" x="94.7" y="153.8" width="401.7" height="377.1"/>
			</defs>
			<clipPath id="SVGID_8_">
				<use xlink:href="#SVGID_7_"  style="overflow:visible;"/>
			</clipPath>
			<path class="st8" d="M218.3,427.4c0,0,0.5-1.1,1.2-0.2c0,0,0.4,0.6-0.8,1.5C218.7,428.6,217.8,428.6,218.3,427.4 M412.2,341.5
				v1.2l-1.2,0.5l-0.2-0.9C410.8,342.4,411.7,341.4,412.2,341.5 M440.4,333.4c0,0,3.3,0.7,3.7,1.5l0.2-1.4c0,0-1.1,0.1-1.3-1.4
				l0.3-4.6l-1.2-2.3l-0.7-0.7c0,0-0.3,0.9-1.9,0.4c0,0-0.8,3.2-2.8,3.2c0,0-1.6,0.3-0.9-3c0,0-0.5-2,0.5-2.9c0,0,1-3.8,2.8-3.3
				c0,0,1.9-0.1,1.1,3l1.1,1.1c0,0,0.2,0.8,0.9-0.3l1.3-0.9c0,0-0.4-1.3,1.9-1.8l0.2-2l-0.8-0.7l-0.2-2c0,0-1.7-0.6,0.1-1.4
				c0,0-0.3-0.5,1.1-1.2l3.3-47.5h-2.4c0,0-0.3-1,0.7-1.3l1-4.3l-0.4-0.6l-1.1-0.2c0,0,0-3.9,0.4-4.9c0,0,0.7-0.7-0.6-1.2l-6.1-0.7
				l-6.1,77.6c0,0,0.9-0.7,0.7,0.9l2.1-0.3l2.8,0.5C440.1,330.6,439.9,333.5,440.4,333.4 M440.4,367.5l-1.9,11l1-0.2l0.3-1.1
				l0.4-6.2c0,0,0.2-0.7,1.2-1.1l0.2-2L440.4,367.5 M433.8,405.3l1.2,0.5c0,0,0.6,1,1.2,0.3l0.3,0.7l1.1-0.2l0.3,0.8l-1.2,4.7
				l-0.8,0.6l-2.4-3.5L433.8,405.3 M447.6,435.9l-0.2,4.5c0,0,1.5-0.3,2.3-2.2L447.6,435.9 M448.1,367.9l-0.3,2.5
				c0,0,1.5-0.1,1.6,2.1l-0.2,2.3l-0.5,0.7l0.2,1.1l-0.5,0.7l0.2,0.9l0.4,0.8c0,0,1.7,0.4,1.3,2.8l-0.3,4.4c0,0,0.5,0.9-3.3,1.3
				l-0.9,10.1c0,0,1.5,0.3,1.3,1.7l-0.2,1.8l0.3,0.6c0,0,1.6,0,2.9,1.1l15.7-4c0,0-0.6-1.9-1.3-2.6c0,0-1.3-0.8-2.2-4.2
				c0,0-5.3-14.6-6.7-17.4c0,0-1.1-1.3-1.8-2.9l-0.9-2.6l-1.3-2.4h-2.2L448.1,367.9 M433.9,400.6c0,0,0.4-8.6,1.3-9.6
				c0,0,2.3-0.2,3.1-1.3l0.4-1.2h0.7l0.8,6.7l-0.3,2.1c0,0-1.4-0.2-1.6,1.2c0,0-3.5,0.6-2.7,2.2
				C435.5,400.6,435.9,401.4,433.9,400.6 M425.6,395.8c0,0,1.1,0.1,2.5-2.4c0,0,9-20.5,10.1-21.7l-1.2,8.5l0.3,0.8l-0.3,3.9l0.8,1.2
				c0,0,0.8,0.8-0.8,1.4c0,0-2.3,0.7-2.8,2.2l-1,11.4l-7.9-2.6L425.6,395.8 M426.7,380l3.1-6.5c0,0,2.5-4.8,4-5.6l1.6-1.3l1.8-2.4
				c0,0-1.6,1.9-3.3,0.2c0,0-0.9-0.2,1.2-2.9c0,0-0.8-1.8,1.7-2.4c0,0,1.3-2.9,3.1-2.1c0,0,1.4,0.3,0.6,1.9l1.9-0.1l1.4-21.7
				c0,0,0,1.2-3.8-0.4c0,0,0.3,1.3-0.9,1.7l-1.9,0.9l1.1,2.4c0,0-0.2,1.1-1.1,0.4l-3.4-1.8l-0.2,3.4c0,0-2.1,2.1-4.8-0.6l0.2-2.2
				l-0.8-0.1l-1.2,18.7c0,0,1.9,0.9,0.9,1.4c0,0-1.1,0.6,0.9,0.6c0,0,4.1,0.9-0.6,1.8l0.2,0.5c0,0,0.8,2.8-0.2,4.9
				c0,0-0.9,3.5-1.2,5l-0.6,0.7C426.3,374.4,426.8,374.2,426.7,380 M408.5,315.7c0,0,2.2-0.2,2.7-1.2v5.1c0,0-0.2,0.1-0.3,1.6
				l-2-0.6L408.5,315.7 M435.4,370.3c0,0-3,3.7-9.1,17.2l-0.3,4.1c0,0,6.5-16.4,9.6-20.4C435.5,371.1,436.9,369.3,435.4,370.3
				 M422.7,439.5l5.7,1.4l-6,4C422.5,444.9,422.7,440.5,422.7,439.5 M396.2,480.2l-7.8,27.5c0,0-0.3,0.4,1.6,2.2l1.8,2.1
				c0,0-0.7-0.9,1-1.3c0,0,3.7-0.6,4.1-1.8l4-16.7l-1-2.5c0,0-1,0-1.6-0.9l-1.7-5.2c0,0-0.7-1.1,0.6-1.6
				C397.2,481.9,396.6,480,396.2,480.2 M405.3,455.3c0,0-2-0.1-2.8,1.9l-4.2,15.8l2.5,7.7l0.8,0.2l1.2,2.8l5.5-22.6
				c0,0-0.8-1-1.4-2.4L405.3,455.3 M432.9,439.5l-10.6,6.4l-1.6,19.1l3.5,0.3l0.9-0.7l2.6-3.6l7.6-8.3l-3.1-0.8l-0.2-0.6l-2.2-0.6
				l0.2-2.2l1-1l-0.2-2.9c0,0-2.2-1.7,1.5-1.7L432.9,439.5 M438,438.3l-0.1,4.2l0.6-0.4c0,0,0.9-0.3,0.8-1.3
				C439.4,440.8,439.5,438,438,438.3 M438.5,435.1c0,0,1.3,0,2.1-1l2.2-1.5l-0.5,9.6h-1.4l-0.3-4.6c0,0,0.2-0.9-1.2-0.5l-1.1,0.2
				L438.5,435.1 M433,435.4l-10,0.7l-0.2,2.1c0,0,3.8,1.4,7,1.4c0,0,1.8-0.3,3.2-2V435.4 M415.1,438.8l-1,4.3l1.2,0.1L415.1,438.8
				 M408.9,437.3l1.3,1l1.8,4.3l1-4.5L408.9,437.3 M413.9,444.8l1.2,0.4l-1.1,15.6l-2.8-7.5l-1.7-1.8l0.4-2.4c0,0,4.6-0.1,3.7-3.6
				L413.9,444.8 M393.5,437.8l5.6,1.6l1.5,3.1l-0.7,2.8c0,0-1.7,0.2-2.2,1.4l-4.2,8.5c0,0-0.3,2,1.4,3.1c0,0,1.7,1.4,3.1,1.3
				l1.6-0.4l-2.4,10.1l-8-22.8l0.5-0.7l-1.1-3l1.1-1.5c0,0,1.1,0.3,2.1-1.6L393.5,437.8 M406.6,429.7h1l2.3-4l2.6-8.9l-2,2.7
				L406.6,429.7 M405.3,412.4l-8.7,10c0,0-2.2-2-2.8-3.5l-1.3-1.5l-3-3.8c0,0-0.2-0.9-2.6-0.3l-1.4-0.6l0.1-5.6c0,0,1.9-0.7,1.9-2.1
				l-0.2-4.1l1.5-1.2l0.7,0.8l4.5,0.8c0,0,2.4-0.9,1.3-1.6l-0.2-0.9c0,0-5.2-1.4-5.4-0.8l-0.8-0.2c0,0,0.3-0.7-0.5-1.6
				c0,0-0.1-1.2-0.6-1.3c0,0,0.1-1.2-1.7-1.7l0.5-12.4c0,0,1.3-0.3,1.3-1.2l-0.3-3.4l0.3-0.4l0.8-6.9l0.7-1.8c0,0,0.8,1,2.8,0.5
				l2.2-0.8c0,0,0.8,1.4,1.4-0.2l0.5-0.9c0,0,1.3-0.7,1.4-1.1c0,0,0.4-1.8-2.9-1.1l-1.2,0.6l-2.2-0.6c0,0-0.1-1-0.7-1.1
				c0,0,0.7-1.5-0.6-4.1l1.6-2.8l10.7-4.6l5.8-3.7l1.7-0.2l0.2,0.5c0,0,5.6-1.8,7.1-3c0,0,1.1-1.1,0.3-2.9l-1.2-2.6l1.6-0.3l4.8,0.6
				l-1.2,19.9c0,0-1-0.3-1.1,0.7l-0.4,3.1c0,0-1.9,1-1.8,2l-1.4,0.4l-0.4-0.5l-1.8-0.1c0,0,0-1.2-1.1-1.2c0,0-0.5-1.5-1.8-1.6
				c0,0-1.1-0.4-0.9,0.9l-0.2,1.7l-0.6,0.3l-0.1,2.3c0,0-1.1,2.6,0.3,2.9c0,0,1.3,0.7,2.1-1c0,0,1.2-0.2,1.5-1.2l2.9-0.5l0.1-0.4
				h1.2c0,0-0.1,1,1,0.8c0,0,0.9,3.8,0.8,5.8l0.3,0.7l-0.6,0.8l-1.4,26.5l-1.5,0.3c0,0-1.5-0.6-1.8,0.5l-3.1,4.1l-0.7-0.1
				c0,0-1.2-1.4-2.2-0.7l-0.8,2l-1.3,0.4v1.2C406.3,409.1,405.5,411.7,405.3,412.4 M425.8,403.9h4.1l-4.7-1.6L425.8,403.9
				 M431.1,404.9l0.1,1.7l1.3,1.7V405L431.1,404.9 M425.7,409.3h2.2l4.1,5.6c0,0-0.2,0.5,1,2.5l0.1,1.8l-1.7,0.2
				c0,0-2.6,4.5-2.6,7.7l0.4,1.7l-5.6,0.1l0.7-16.2c0,0,1.9-0.4,0.3-2.3L425.7,409.3 M416.8,414c0,0-1.3,1.3-2.7,4.6l-3.1,10.9
				l4.1-0.2l1.7-6.7L416.8,414 M407.6,420.2l-4.7,5.1l-2.7,1.4l1.3,1.6l1.9,1.7L407.6,420.2 M385.1,422.1l-0.3,4.3l7.3,2.1l2-3.3
				l-1.4-1.8l-1,0.8c0,0-1.4-0.1-2.3-2.2c0,0,0-0.8-1.1-0.8L385.1,422.1 M375.4,380.1l2-0.2l1.2,0.2l2.2,0.7l-0.3,11.8
				c0,0-1.9,0.4-1.8,2.1c0,0-0.9,0.1-0.9,1.3v4.1l-2.3,1.2c0,0-0.6-1.8-1.3-1.2l-3.3-5l-0.3-1.7l1.1-0.6l0.1-1l3-1.5l-0.3-2
				c0,0,3,0.2,3.3-1l-0.2-4c0,0,0.1-0.7-2.1-0.7l-0.2-2.1L375.4,380.1 M373.6,367.5c0,0,2.7,0.2,3.9-0.8c0,0,0.5,2.6,2.5,2.6
				l-3.1,6.5l-3,0.1L373.6,367.5 M359.4,358.2l4.8,1.8c0,0,1.7,7.1,2.3,7.7c0,0,3.3,2.2,2.4,4.6l-1.2,2.7c0,0-1.1-3.3-3.1-5.1
				c0,0-2.1-0.8-2.5-2.1l-1.1-3c0,0-0.6,0,0-2.2C361.1,362.6,360.4,359.6,359.4,358.2 M340.1,351.8l10.8,0.5c0,0,1.1,3.7,4.3,3.7
				l0.6,0.3c0,0,3.2,6.4,3.2,7.7c0,0-0.2,2.6,1.4,5.2c0,0,0.5,1.9,3,3.3l2.5,4.9c0,0-0.3,0.6-0.9,0.6
				C364.9,378,357.9,361.8,340.1,351.8 M359.6,351.8c0,0,15.8,0.5,41.5-3.1c0,0-4.5,1.2-6.1,1.9l-17.5,6.8l-1.1,0.2H367l-1.6-0.9
				l-1.3-0.2l-4.3-2.4c0,0,0.3-1.5-0.9-1.6C358.9,352.4,358.6,352,359.6,351.8 M312.4,286.1l1.3,0.4l0.4,4.2l-0.9,0.1l-0.3-1
				l-0.4-0.6L312.4,286.1 M303.8,285.4c0,0,2.2-0.4,2.9-1.1c0,0,0.6,0.2,0.3,1.2l-0.5,3.1l-0.5,0.6l-0.2,2c0,0-0.2-1.2-1.1-1.2
				c0,0-0.9,0.1-0.9-0.7C303.8,289.3,303.2,289.5,303.8,285.4 M301.9,319.7l-0.4,4.2l1.2-0.1l0.2-3.3
				C302.9,320.5,302.6,319.7,301.9,319.7 M300.3,327.9l-0.4,5.1c0,0,2.8,0.3,3.5,0.8l0.2-4.9c0,0-0.5,0.2-0.6-1.3
				c-0.1-1.6-1.6-0.1-1.6-0.1S301.4,328.9,300.3,327.9 M315.1,323.9l2.2,0.1l0.2,5.4c0,0-1.6,0.8-2.7,0.8l-0.2-4.7
				C314.6,325.5,315.1,325.8,315.1,323.9 M252.7,377.9c0,0,8.4-17.8,28.6-27.6l1.1-1.7c0,0-1.1-1.8,0.4-2.7c0,0,2.2-1.6,3.3-0.3
				l1.4,1.5l0.8,0.1c0,0,16.2-6.8,36.4-1.3c0,0-0.5-0.7,0.4-1.5c0,0-0.9-0.2-0.9-0.8l-1.3-0.2c0,0-1.2-1.3,0.9-0.8l0.5-0.8l-0.1-2
				c0,0-1.8-1.7,0.4-2.9l-9.8-0.1c0,0-0.2-0.2,0.9-0.9l-0.2-2.8h-0.5l-0.1,1.9h-1.3l-0.3-1.8l-0.5-0.8c0,0-1.4-0.7,0.3-1.9
				c0,0,0.5-0.4,0.5-1.1l-0.2-3.8l-0.1-0.6l-0.1-2.5l-1.8-0.1c0,0-1.3,0-0.9-4.8c0,0-0.3-4.7,1-3.5l2.3-0.5c0,0-0.2-2,1.7-1.6
				l0.6-0.8l0.9-0.1l0.1-7.2l-0.8-0.7c0,0-0.5,0.3-0.5-0.5h-1.6c0,0-0.9-0.4-1.1-1.1l-3-0.2l-0.8-1.9c0,0,0.3,0.6-0.7,0.9h-3.3
				l-0.5,1.4h-1.5l-0.6,0.9l-0.5,0.5l-0.6,11.7l0.8,0.2l0.4,0.6l1.1,0.3l0.1,1.1l3.7,0.8c0,0,1,4.8-0.5,8.3l-1.8,0.3v2.3l-0.4,0.6
				l-0.3,5.1c0,0,1.7,1.4,0.2,2.6l-0.1,1.9c0,0-0.3,1.1-1.5,0.1l0.1-1.7l-0.6-0.7c0,0-1.3-0.5-1.3,0.3l-0.2,2.6c0,0,2.2,1.6-0.7,1.3
				l-46.9-2.7c0,0,0.5,6.6-2.5,6.7l-0.5,14.6c0,0,2.1,0.2,3,1.3c0,0,0.9-0.5,2.1-0.2c0,0,1.8-0.2-0.6,0.8l-0.4,0.5
				c0,0,0,1.3-0.6,1.7c0,0,0.4,4.7-1.3,5.2l-0.5-0.5l-1.2,0.1c0,0-0.4,0.1-0.3,1l0.3,8.4C250.9,377.6,252.4,377.2,252.7,377.9
				 M196.9,447.1l0.1,11.5l2.8-8.4C199.8,450.3,200,446.8,196.9,447.1 M214.4,485.5l1,4.8l1.1-2.4c0,0-1.3-0.5-0.9-1.8
				C215.6,486.1,215.8,485.3,214.4,485.5 M215.7,499.5l-3.5,9.6l1.3,0.9c0,0,0.5,0.1-0.1,1.7l0.6,1.6c0,0,0.5-1.4,1.5-2.3
				c0,0,2.3-0.6,2.2-2.3L215.7,499.5 M203.5,455.3l-1.8,6.4c0,0,1,2.8-0.4,3.3l-0.2,0.8l7.4,42.5h0.8l5.2-14.3l-1.8-8.9l-2.7-0.8
				c0,0-0.3,1-2.2,0.5l-0.6-1c0,0-0.5-0.9,0.4-2.1c0,0-0.1-0.6,1.6-0.8c0,0,1.8-0.2,2,1l0.7-0.1c0,0-4.4-23.5-5.2-24.7
				C206.6,457.1,204.6,455.6,203.5,455.3 M204.8,453.2l9.7-19.6c0,0,2.3-1.2,2.6-2.4l0.5-0.2l12.6,13.9l0.6,0.5l-11.7,34l-0.8,0.4
				l-1.7,4.6l-2.3-0.5l-0.6-2.4l-5.4-25.6c0,0,0.2-1.1-2.5-2C205.9,454,204.7,453.8,204.8,453.2 M211,415.2c0,0,15.9,0.5,26.8-3.7
				l2.2,2c0,0-0.3,0.9,0.6,1.4c0,0-2.8,4.1-4.2,17.2l-2.6,2.5l0.2-3c0,0,0-1.9-2.2-0.6c0,0-1.6,1.8-1.8,3.8l-0.7,0.2
				c0,0-4.3-5.5-5.5-5.5c0,0-0.7-1-1.9-1.5l-3.3-3.1l0.1-0.9L211,415.2 M205.6,418.1c0,0,6.4,7.6,10,9.3l0.3,0.6l-1.3,1.9l-1.9,1.8
				l-8.9,17.3l-0.2-1.6c0,0,2.2-3.2,1.9-5L205.6,418.1 M198.7,415.5l4,0.1l0.5,19.8L198.7,415.5 M195.9,415.6l0.5,22l1.2,7l2.2,1.3
				l1.1,1.6c0,0,2.3-5.2,1.9-7.3l-5.5-23.3C197.4,416.9,196.6,415.6,195.9,415.6 M188.6,413.3l1.8,48.9l-0.6,0.7l-3.5-0.1
				c0,0-1.2-2.2-3.2-2.8l-18.5-20.3l0.6-0.6c0,0,3.2,0.1,2.6-2l-1.5-5.1l-0.6-0.9l-0.1-0.7l16.4-17.9c0,0,5.4,2.9,6,1.8L188.6,413.3
				 M189.1,259.4l30.8,16.4l0.5,0.6l-0.2,0.8l-1.7,0.2v1c0,0-2.2,0.2-2,1.8l-0.5,0.3c0,0-1-0.4-1.2,0.4c0,0-0.9,2.3-0.8,3.3
				l-0.2,5.8l-2.2,0.5c0,0-1.2,0.3-1.3,3.6l-0.8,0.4c0,0,0.3-2.3-0.9-2.6c0,0-1-2.8-2.9-2.3c0,0-0.7-0.4-0.4,2.1
				c0,0,0.2,2.5-0.4,2.7c0,0-1.5,1-0.3,2.6c0,0,0.6,1,0.2,1.9c0,0-0.5,2,0.7,2.3c0,0,1,0.9,1.7-1.9l1.2-0.4l0.5-1.7l1.1,0.4
				c0,0,0.4,2.8,1.1,3.5l2.2,0.2v0.7l0.1,2.5c0,0-3.2-0.4-3.1,0.5l0.1,1.3c0,0-1.5,0.7-0.2,1.9l0.1,1.4l1.8,0.2l1-0.2l0.1,0.7
				c0,0-15.7-0.6-25.7,1.1l-0.5-42.8l0.6-0.1c0,0,0.4-5.7,0-6.4c0,0,0-0.7-2.5-0.4l-0.1-1.3C185,260.6,188.3,260.4,189.1,259.4
				 M175.2,413.9l-5.1,5.3c0,0-5.5,4.1-6,4.7c0,0-1,1.4-0.6,2.8l-4.8,5.4l-36.1,40.3c0,0-1.2-0.9-1.9-0.1c0,0-2,2.2-4.3,6.5
				c0,0-0.5,0.7-0.4,1.3c0,0-0.6,0.4-0.6,1.1c0,0-0.5,0.4-0.6,1.1l-0.4,0.2c0,0-1.3,1.7-1,2.2l0.7,0.6c0,0,0,1.1,4.2,1.1
				c0,0,2.7,0,4.3-2.7c0,0,1.9-2,1.9-3.7c0,0,0.6-0.8,0.4-1.4c0,0,0.6-0.4,0.3-0.9c0,0,0.8-1,0.8-1.8c0,0,0.7-0.8-0.2-1.6
				c0,0-0.2-0.2,1.5-1.9l23.3-26l0.5-0.8l7.4-7.9c0,0,1.1,0.5,2.1,2.4c0,0,0.4,0.9,1.4,2l17.9,19.9l2,1.2l1.9,2c0,0-0.3,2.1,0.3,2.5
				c0,0,5,0.6,5.5-0.1c0,0,0.8,2.6,4.6,2.4l1.1,1.4l-0.2,0.5c0,0-0.7-0.2-1,1.4l-0.7,4c0,0-1.1,0.5,0.4,1.6c0,0,0.4,2.5,3.8,1.6
				c0,0,1-0.4,1.7-1.6c0,0,1.2-0.4,0.5-1.6c0,0-0.7-2.7-1-4.7c0,0,0-0.7-0.8-0.7l-0.1-3.8l1.5-1.3l0.4,0.2l7,41.4
				c0,0-0.9,2.2-1.6,4.6c0,0-6.1,5.8-1.7,10c0,0,2.6,3.4,5.2,1.2l1.4-1.9l0.5,0.2c0,0,0.2,4.8,1.3,6.7c0,0,0.5,1.9,2.3,1.6
				c0,0,5.9-0.8,6.5-1.6c0,0,1.1-0.3,0.3-2.8c0,0,0.2-1-0.6-1.1l-0.1-0.7c0,0,0.6-0.5-0.3-0.8c0,0,0.8-0.8-0.1-1.1l-0.3-0.8l0.1-0.5
				l-1.5-7.3c0,0-0.1-1-2.6-0.8c0,0-0.4-1.6,1-2.5c0,0,2.9-1.6,2.8-3.1l-2.6-11.7l2.8-7.3c0,0,1,0.5,1.4-0.6l2-6.4l-0.5-0.7
				l11.3-31.9l3.4,3.8c0,0,1.8,6.8,2.7,9.3c0,0-2.3,2.5-2.3,3.5c0,0,0.8,3.4,1.9,3.7l2-0.1l1.1,0.5l0.8,0.2c0,0,9.3,22,35.6,33.9
				c0,0-0.6,0.5-0.1,1c0,0,0.7,0.2,0.5,0.9c0,0-1.8,1.8,1.4,3.2c0,0,2.3,1,3.1-0.5c0,0-0.1-0.8,0.8-1.1c0,0,1,0.2,1.2-0.7
				c0,0,20.4,9,47.6,0.2l0.7,0.1c0,0-0.7,0.6,1.1,0.5l0.8,0.7c0,0,0.5,1.6,2.5,0.9c0,0,2-0.2,2.4-1.6l-0.5-1.7l0.5-0.7v-0.6
				c0,0,24.7-10.5,35.5-32.4c0,0,0.5,0.1,1.2-0.2h2.8l0.7,0.5h4.7c0,0,0.9-0.8,0.9-1.6c0,0-0.4-10.9-0.9-12c0,0-0.6-1-1.4-1
				c0,0-0.5-0.7,0.1-1.6c0,0,1.6-2.9,1.8-4.3l8.4,24.4c0,0-8.3,29-8.1,30.6c0,0-0.9,0.8,1.3,2.7c0,0,2.1,1.3,1.3,3.2
				c0,0-1.9,0-2.3,1.1l-2.1,7.1l0.2,1.1l-0.6,0.2l0.3,0.7l-0.5,0.7c0,0-0.3,0.2,0.1,0.8l-0.5,0.5c0,0-1.2,2.3-0.2,3.5
				c0,0-0.1,0.4,2.8,1.1c0,0,4.2,1.4,4.8,1c0,0,1.9-0.9,2.8-5.4l0.2-2.8l-0.2-0.6c0,0,0.4-0.5,0-1c0,0,0.5-1,0.1-1.4l0.3-0.8
				l0.4-3.4c0,0-0.4-1-1.5-1.2c0,0-1.2-1,1-1.9c0,0,2.9-0.3,3.7-1.9l3.8-14.7l3.7,10.2c0,0-1.9,0.4-1.9,1l1.7,5.1c0,0-1.1,4.6,2.7,8
				c0,0,1.2,1.7,4.9-0.2c0,0,2.9-1.2,2.1-5.1c0,0-0.1-2.5-2.9-5l-0.4-0.9l-1.3-4.1c0,0-0.5-0.2-2,0.5l-0.4-0.5l-4.6-14.1l0.5-1.9
				c0,0,1.9,0.1,0.2-0.8l0.1-0.7l1.8-0.7c0,0,0,0.4,1.3,0.3l1.6-0.7c0,0,0,1.4,1.3,1.2c0,0,1.2,0.3,1.7-1.4c0,0,0.9-1.6-0.3-3.2
				c0,0-0.8-1.4-2.2-1c0,0-1,0.4-1,1.6l-2.3,0.7c0,0-0.8,0.4-0.5,1l-1.4,0.5l0.3-1.7l4.8-20.3c0,0,0.1,2.8,0.5,4.1l1.9,1.1
				c0,0-0.7,0.8,1,1.7v3.4c0,0,0.5,0.9,1.1-0.5l0.7,1.1l1.6-1.5c0,0,3.2,1,4.5-1.5l0.5-0.3l5.5-0.1c0,0,0.8-0.1,0.4-2.7l1.4-1.9
				l1.7-3.1l10.9-11.1c0,0,1.9-0.4,2.1-1.4l0.3-0.7l0.9-0.9l0.7,0.2c0,0,1.5-1,1.7-2.2v-1.5l1.1-1.2l0.4-0.6c0,0,2.6-1.4,2.9-2.2
				l0.5-0.6l1.4,1.6c0,0,0,1.3,1.5,2.1l27.1,36c0,0-0.6,0.6,0,2.2l0.7,1.7c0,0,0,1,0.5,1.6c0,0-0.7,1.4,1.3,3.8c0,0,1.7,3.9,4.5,4
				c0,0,4.6,0.2,4.5-2c0,0-0.3-1.7-1.1-2.1c0,0,0.2-0.8-0.6-1.1c0,0,0.2-0.3-0.2-1l-0.1-0.7c0,0-2.8-6.3-3.3-6.6l-0.6-0.9l-0.3-0.5
				l-1.1-0.1c0,0-0.2,0.2-1.3-1.3l-28.6-38l-0.5-0.6l-7.6-10.2c0,0,1.3-14.9-0.1-18.9c0,0-0.1-0.5-2-1.1l0.1-1.9l0.5-0.4l2.5,0.5
				c0,0,1.3-0.1,1.6-1l16.5-3.9c0,0,0.9,1.4,0.6,2.5c0,0-0.3,1.9,0.4,4l11.9,28.9c0,0,1.3,4.3,2.1,5.8l0.3,1.3l0.8,3.4
				c0,0-1.3,1.1-1.3,1.9l0.3,6.4c0,0-0.2,3.3,5.6,5.2c0,0,2.1,1,2.7-1.1c0,0,1.7-1.7,1.4-2.5l-3.4-9.7c0,0-0.5-0.7-1.6-0.8l-0.6-0.5
				c0,0-0.4-2.4-0.4-4.3c0,0,0.2-2.8-0.5-4.3c0,0,0-1.1-0.8-3.6l-10.5-30.4c0,0-0.5-1.1-2.1-1.8c0,0-0.7-0.7-1-1.6l-1.9-5.2
				c0,0-0.1-1.7-0.5-3.5l-8.1-19.7c0,0-1.6-3-2.7-4.1c0,0-1.5-1-1.9-2c0,0-1.4-3.1-2.5-3.4l-3.3-0.9c0,0,0.7-1.4-1.3-2L450,338
				c0,0,0.4,0.4,0.6-3.9c0,0,1.4-0.2,1.3-1.2l0.5-4.7c0,0,0.9-0.5,0.9-1.2l-0.1-3.5c0,0,0.4-0.7-0.4-1.2c0,0,0.3-1.4-1.5-1.7
				l-0.1-2.2c0,0,0.9,0,1.2-0.8c0,0,0.8-2,0.2-3.3c0,0-0.1-0.5-0.8-0.5l3.6-53.8c0,0-0.1-0.8,1.5-0.7l25.7,29.5c0,0,1.3,0.4,1.9-1.6
				c0,0-25.7-29.6-25.7-30.5l0.4-2.1l-0.4-0.6c0,0,0.3-0.8,1.5-0.8c0,0,25.5,0.7,35.1-2.5c0,0,2.2-1.2-1-2.9c0,0,3.7-1.1,1.2-2.8
				c0,0-10.6-4-32.8-5.8c0,0-0.8,0-2-0.7c0,0-1.7-1-3.5-1l0.2-1c0,0,0.2-1.2-1.1-1.3v-0.8c0,0,2.2-1.2-0.3-1.3l-0.1-2.2l0.9-0.3
				l0.2-1.8l1.5,1.1c0,0,2.6-0.3,0.6-1.6l-2-1.2l-0.2-1.3l-1.1-0.5l1.5-22.7c0,0,0.2-1.3-1.2-0.5l-1.6,23.1l-0.7,0.1
				c0,0-1.3-2.1-2.3-2c0,0-1.4,1,0.1,1.7c0,0,0.8,1.1,1.5,1.1l-0.3,4.3l0.9,0.5v1.8c0,0-2.8,0.8-1,1.3l0.1,1.3h-1l-0.2,1.8l-0.3,0.6
				l-3.4,0.2c0,0-0.9-2.6-1.7-3.1c0,0-1.2-4.4-8.1-2.8l-1.3,0.5l-28.4-32.9c0,0,0.6-0.8-0.2-1.5l-2.4-2.7l-2.5-3.2l2-3.1
				c0,0,0.2-1-1.3-0.2l-1.8,1.5l-0.7-1.2l-1.3-3.8l-0.7-0.4l-0.2-1c0,0,32.3-11.5,42.6-20.6c0,0,8.5-5.5,3.1-8.4c0,0-3.9-2.7-25,1.1
				c0,0-4,0.1-19.3,5l-6.1,1.8l-0.7-1.7l-2.4-0.2c0,0,0.1-1.6-0.6-2l-1.4-0.9c0,0-0.2-0.5-2.2,0.8c0,0-2.1-1.1-1.3,0.7l0.8,1.2
				l0.9,1.7c0,0-1.6,1.2-1.6,1.6l0.3,1.5c0,0-25.3,8-40.1,19.5c0,0-8.1,5.5-3.8,8.8c0,0,6.9,3.9,29.6-1.8c0,0,15.3-3.5,24.3-7.5
				l0.4,1.4c0,0-0.5,0.4,0.2,1.8l-0.1,0.6c0,0-4.3,0.8-4,6.1c0,0,0.8,5.4,6,4.1c0,0,2.4-0.2,3-1.2l0.5,0.6l3,3.2
				c0,0,0.8,0.8,1.2,0.2l28.1,32.2c0,0-1.8,3-0.7,5.5c0,0-20.9,1.2-21.8,4.6c0,0-1.2,1.9,3,3.1c0,0,3.8,1.4,18.2,3.9l2.7,0.3
				l-4.9,62.3l-1.4,14.8c0,0-2.5-0.2-4.3-1.1l-2.5-1.4l0.4-5.8c0,0-1.8-0.7-2.3,0l-0.6,4.8l-0.7,0.4c0,0-2.9-0.5-4.9-0.1l-0.6-2.2
				c0,0-0.4-0.7-1.7-0.7v-1.9l-0.3-0.5l-0.1-5.8c0,0,1.7-1.9,0-3.1c0,0,0.4-1.5-0.8-1.6c0,0-0.7,0.2-0.2,1.3l-0.3,0.8l-1.1-0.1
				l-0.4-1.8c0,0,1.7-1.4-1.3-2c0,0-3.8-0.8-11.7-0.5v-1.1c0,0,1-1.6,1-4.3l6.5-0.4c0,0,0.5-0.2,0.2-1.1l0.1-1.5
				c0,0,0.5-0.5-1.5-0.6c0,0-2.5-0.5-3.3,0.6l-2,0.1c0,0-0.7-4.3-1.7-4.2l-0.2-6.4l-0.6-1c0,0,0.2-1.7-1-1.5c0,0-1.1-0.5-1.1,0.9
				c0,0-0.4,1.6-0.3,2.5l0.2,5c0,0-0.3-1-1.1-1c0,0-1.6-1.5-2.7-1.4v-1.6l-0.7-7c0,0,0.7-1.1-4.9-1.3c0,0-1.1-4.2-2.5-3.8l-0.1-1.9
				c0,0,2.8-1.9-1.8-2.6c0,0-11.1-2.5-42,0.5c0,0-24.4,2.2-25.4,5.1c0,0-1.3,0.4-0.7,1.7c0,0-2,2.1-0.2,3.5l0.5,1.2l0.5,4.7
				l-0.3,0.8l0.1,1.7l-1.1,0.2c0,0-0.2-1-2.5-0.7v-2.8l0.6-5.6c0,0,1.7-1,0.7-2l-0.1-1.8c0,0-0.5-1-1.3-0.1l-0.2,1.4l-0.3,0.4
				c0,0,0.2-0.6-1.8-1.2l0.1-1.5c0,0,1.3-0.4,1.2-1.4c0,0,0-4.3-35.1-7.1c0,0-17.6-2-37.8-1.3c0,0-11.7,0.5-10.5,2.6l0.8,1.2
				l0.1,2.1l-2.1-0.7c0,0,0.5-2-1.6-1l-30.2-15.9c0,0-0.2-2.9-0.5-3.4c0,0,21.3,4.2,28.8-2.9c0,0,6.3-4.8,0.3-13.7
				c0,0-8.6-14.6-38.7-28.3c0,0-27-13.2-54.1-16.2c0,0-27.2-4.1-30.7,6.4c0,0-3.5,6.9,12,19.1c0,0,11.9,11.2,41.4,23.6
				c0,0,10.1,4.4,20.7,7.4l8.1,4.4c0,0-0.5,1.2-0.2,1.8l-2.2,0.1c0,0-0.8,0.7-1.1,1.5c0,0-2.5,2.7-1.8,3.1c0,0,0,0.7,1.4-0.4
				l2.2-1.4l1.7,0.1l0.8,1.8c0,0,0,2.1,1.8,3.6l1.6,2l0.2,1.4c0,0-0.9,1.1,0.2,2.2l0.3,0.5l0.2,42.9c0,0-20.3,2.6-15.8,8.7l-1,1.3
				c0,0-1.2,0.5-0.4,1.1l-0.2,1c0,0-1,0.5-0.2,2.2l0.3,0.5l0.2,4.7l-0.2,2.7l-1.7,0.1c0,0-1.4,3.2,0.4,7.9l2.8,0.1
				c0,0,0.5,1.4,1.6,1.4l0.6,0.3l0.1,34.3c0,0-0.8,1.2-0.2,3.3v2.8c0,0-1.4,0-1.7,1.6c0,0-2.1,0-2.5,0.5c0,0-1.5,5.4,0.6,7.6
				l1.3,0.3v1.5l0.2,0.5l-0.1,2.6c0,0-1.7,2.2-1,3.2c0,0,0.2,1.5,1.5,1.6l0.5,0.2c0,0,0.9,3.7,9.7,6.9L175.2,413.9"/>
		</g>
	</g>
</g>
<g>
	<defs>
		<rect id="SVGID_9_" x="667" y="134.6" width="137.4" height="416.5"/>
	</defs>
	<clipPath id="SVGID_10_">
		<use xlink:href="#SVGID_9_"  style="overflow:visible;"/>
	</clipPath>
	<g class="st9">
		<defs>
			<rect id="SVGID_11_" x="667" y="134.6" width="137.4" height="416.5"/>
		</defs>
		<clipPath id="SVGID_12_">
			<use xlink:href="#SVGID_11_"  style="overflow:visible;"/>
		</clipPath>
		<g class="st10">
			<defs>
				<rect id="SVGID_13_" x="667" y="134.6" width="137.4" height="416.5"/>
			</defs>
			<clipPath id="SVGID_14_">
				<use xlink:href="#SVGID_13_"  style="overflow:visible;"/>
			</clipPath>
			<path class="st11" d="M672,527.3c4.2,7.1,9.3,11.8,15.9,15.2c6.3,3.6,18.6,5.2,26.4,5.8c7.9,0.5,19.4,0.4,19.4,0.4s-1,1.2-1,1.4
				s0.3,1,2.8,1c2.5,0,2.9-0.6,2.9-1c0-0.3-1.2-1.4-1.2-1.4s8.5-0.4,16.9-0.8c13.3-1.2,19.4-2,27-4.9c7.6-2.9,11.6-7.9,13.5-10.3
				c1.9-2.5,6.1-10.5,7-12.5c0.9-2,2.1-3.8,2.6-8.8c0.1-1.6,0.2-3.4,0.2-5.3v-0.3c0-3.8-0.4-8.4-1.8-14.2c-2.1-8.9-5.2-16.4-9-24.1
				c-3.2-6.3-5.9-11.4-7.4-15.7c-1-3-2.1-7-2.2-11.5c0.1-4.8,1.3-8.5,3.4-13.9c2.1-5.4,5.1-10.7,7-20.4c1.8-9.7,0-17.1-2.8-21.8
				c-2.8-4.8-6.3-5.5-9-5.6s-4.6,1.4-6.5,4c-1.9,2.6-2.1,7.2-5,13.3c-2.9,6.1-6.1,8.1-8,9.4c-1.8,1.3-5.4,2.2-7.6,1.9
				c-2.1-0.4-4.1-1.2-4.8-2.1c-0.7-1.2-1.4-2.8-2-4.1c-0.6-1.3-1-1.3-1-1.3s-0.6-44.6-0.8-52c-0.1-7.4-1.9-140.1-2-142.1
				c-0.1-2-0.2-5.2,1-11c1.2-5.8,3-10.5,4.7-15.3c1.7-4.9,1.7-7.5,1.6-10.7c-0.1-3.2-2.2-8.3-2.7-9.6c-0.5-1.3-1.5-3.3-0.4-5.6
				c1.2-1.9,2.9-2.8,3.9-5.5c1.1-4,0.8-6-0.4-8.1c-1.2-2.1-3.4-4.5-7.2-4.9c-3.9-0.4-5.5,1.7-6.2,2.6c-0.7,0.9-1.5,3.8-1.5,3.8
				s-1-0.3-1.9-0.6c0.2-0.6-0.1-1.8-0.2-2.3c-0.1-0.5-1.1-0.7-2.2-1.1c-1.1-0.3-1.5,0.1-1.8,0.4c-0.3,0.3-0.9,0.9-1.2,1.6
				c-0.3,0.8-0.3,1.5-0.3,2.5c0,1,0.2,1.8,0.4,1.9c0.3,0.1,1.3,0.4,2,0.6c0.7,0.2,1.2,0,1.8-0.7c0.6-0.7,0.8-1.2,0.8-1.2l1.9,0.6
				l-2.4,8c0,0-0.8-0.3-1.8-0.5c0.2-0.9-0.1-1.4-0.2-2.2c-0.1-0.8-1.1-0.9-2-1.2c-1-0.3-1.3-0.2-1.8,0.2c-0.4,0.4-1.1,0.9-1.3,1.8
				c-0.3,0.8-0.3,1.5-0.3,2.4c-0.1,0.9,0,1.8,0.3,1.9c0.3,0.2,1.2,0.5,2.1,0.6c0.8,0.2,1.2,0,1.8-0.5c0.5-0.5,0.9-1.3,0.9-1.3
				l1.9,0.6l-2.4,8l-2-0.6c0,0,0.1-0.7,0.1-1c-0.1-0.3-0.1-1.4-0.3-1.6c-0.2-0.3-1.8-0.8-2.5-1c-0.8-0.2-1.6,0.8-2,1.2
				c-0.4,0.3-0.7,1.4-0.8,2c-0.1,0.6,0.1,2.9,0.3,3.2c0.2,0.3,2.3,0.9,2.7,1.1c0.4,0.1,1.3-0.8,1.5-1.2c0.3-0.4,0.5-1,0.5-1l1.9,0.7
				l-2.4,8l-2-0.6c0,0,0-0.3,0.2-0.6c0.1-0.4-0.2-1.8-0.5-2.1c-0.3-0.4-1.5-0.6-2.4-0.8c-0.8-0.2-1.3,0.6-1.8,1
				c-0.5,0.4-0.9,1.5-1,2.1c-0.1,0.6,0,3.1,0.2,3.3c0.2,0.2,2,0.7,2.9,0.9c0.9,0.2,2-2,2-2l2,0.7l-2.4,8.1c0,0-0.8-0.2-1.8-0.6
				c0.1-0.5-0.2-2.3-0.3-2.7c-0.2-0.4-1.7-0.8-2.6-1c-0.9-0.2-1.7,1.1-2,1.4c-0.3,0.3-0.6,1.3-0.7,1.9c-0.2,0.5,0,2.9,0.2,3.2
				c0.2,0.3,2.3,1,2.9,1.1c0.6,0.1,2-2.1,2-2.1l1.9,0.6l-2.5,8.1c0,0-1-0.3-1.8-0.6c0.2-0.8-0.1-2.2-0.3-2.6c-0.2-0.4-1.9-1-2.6-1.1
				c-0.7-0.2-1.6,0.8-2,1.2c-0.4,0.4-0.7,1.5-0.8,2.2c-0.2,0.7-0.3,2.7,0,3.1c0.3,0.4,2.5,1.1,3.1,1.1c0.6,0,2-2.1,2-2.1l2,0.6
				c0,0-1.1,3.7-1.7,5.5c-0.6,1.8-0.6,3.3-0.1,4.4c0.6,1.1,1.6,1.7,3.3,3.1c1.7,1.3,2.4,2.6,2.5,3.4c0.2,0.8,0.3,3.6,0.2,6.5
				c-0.4,8.9-3,155.7-3,155.7s-0.1,6.1-0.1,7.4c0,1.3-0.5,2.6-0.7,3.7c-0.2,0.5-0.8,1.5-1.9,2.2c-1.1,0.7-3,1-4,0.6
				c-1-0.4-3.4-2.2-6.1-3.7c-2.7-1.4-6.7-3-10.7-3.8c0.1-0.5-0.7-0.7-0.7-0.7l0.1-0.6c0,0,1.5-1.4,1.5-1.8c0-0.3-0.7-0.5-2.7-0.8
				c-1.9-0.3-2.9-0.3-3,0c-0.1,0.3,1.3,2.4,1.3,2.4s0,0.7-0.1,0.6c-0.6-0.1-1,0.1-1.1,0.4c-5.3,0.2-8.5,1.9-9.7,2.4
				c-1.2,0.5-7.1,3-9.6,12.5c-1.9,8.9-0.4,14.4,0.8,19.5c1.2,5,5.2,14.2,6.6,17.5c1.4,3.3,3.3,8.2,2.8,15.3c-0.7,7-2.7,11-4.5,15.1
				c-1.8,4.1-8,15.3-11.4,25.1c-2.9,8.4-4.2,15.3-4.5,22.8c0,0.5,0,1.1,0,1.6C667,514.7,668.7,521.3,672,527.3"/>
		</g>
	</g>
</g>
<g>
	<defs>
		<rect id="SVGID_15_" x="90.3" y="652.1" width="401.7" height="258.8"/>
	</defs>
	<clipPath id="SVGID_16_">
		<use xlink:href="#SVGID_15_"  style="overflow:visible;"/>
	</clipPath>
	<g class="st12">
		<defs>
			<rect id="SVGID_17_" x="90.3" y="652.1" width="401.8" height="258.8"/>
		</defs>
		<clipPath id="SVGID_18_">
			<use xlink:href="#SVGID_17_"  style="overflow:visible;"/>
		</clipPath>
		<g class="st13">
			<defs>
				<rect id="SVGID_19_" x="90.3" y="652.1" width="401.7" height="258.8"/>
			</defs>
			<clipPath id="SVGID_20_">
				<use xlink:href="#SVGID_19_"  style="overflow:visible;"/>
			</clipPath>
			<path class="st14" d="M333.5,888.7c7.8-0.6,13-2.6,18.5-8.4c-1.6,10.4-14.1,11.2-21.8,8.2C331.3,888.5,332.4,888.7,333.5,888.7
				 M333.9,880.8c-4.1-0.1-8.3-1.5-12-3.2c9.7-1.5,17.2-13,19.2-21.7c1,1,3.4,1.4,4.7,2.2c1.6,0.9,0.5,2.9,0.8,4.6
				c-1-0.4-1.8,1.7-0.9,2.1c1.2,0.6,1.9,1.1,3,1.9c1.6,1.1,2,0.9,1.3,2.6c-0.4,1.1-1.6,2.7-2.2,3.7
				C344.5,877.8,339.8,880.9,333.9,880.8 M402.6,855.6c1.7,0,4.2,4,5.3,5.4c1.4,1.7,4.7,4.3,2.8,6c-4,3.6-7.9,7.1-12.3,10.3
				c-9.1,6.5-19,10.6-29.9,12.9c-4.8,1-9.4,1.6-14.2,1.9c3.2-4.2,6.6-8.7,6.8-14.2c0.1-1.2,0.4-7.1,1.7-7.6c1.3-0.5,6.4,2.1,7.8,2.5
				c2.6,0.8,5.3,1.6,7.8,2.5c1.7,0.6,5.2,3.3,6.9,2.2c1.9-1.2,3.3-4.5,4.6-6.4c1.5-2.3,3.4-4.4,5.1-6.6
				C397.2,861.9,399.8,857.6,402.6,855.6 M393.7,853.1c1.6-1.3,3.7,0.3,5.4,1c-3.8,3.6-7,8.4-10.1,12.5c-1.6,2.1-3,4.4-4.4,6.7
				c-1,1.6-5-0.4-6.4-0.7c-3.4-0.8-8.3-1.8-11.3-3.7c5.3-1.7,10.6-2.3,15.6-5.1c0.2-0.1,2.9-1.8,1.5-1.8c-0.6,0-2.6,1.7-3.2,2.1
				c-2.4,1.1-5,2.2-7.5,2.8c-2.4,0.6-6.9,2.1-9.2,1.2c2.3-1,4.1-3.8,4.8-6.2c0.5-2,0.9-6.1,3.4-5.6c2.1,0.4,4.8,3.2,6.8,4.2
				c2.8,1.3,5.4,1.2,7.9-0.7C389.2,858,390.4,853.4,393.7,853.1 M391.6,849.9c0.6-1.1,1.3-2.7,2.3-1
				C393.1,849.1,392.3,849.5,391.6,849.9 M417.7,858.4c-2.2-0.8-5.7-1.8-7.5-3.3c-1.4-1.1-0.8-1.2,0.4-2.7c0.9-1.1,1.6-2.2,2.4-3.4
				c1.1-1.8,1.2-1.2,2.3,0.3c0.8,1.1,1.6,2.2,2.5,3.3c0.4,0.6,2.4,2.3,2.5,2.9c0.1,0.9-1.6,2.4-2.2,3.1
				C418.2,858.3,417.9,858.4,417.7,858.4 M406,852.6c-0.3-0.1-0.6-0.3-0.9-0.3c1.5-1.4,4.4-7.3,6.1-7.4
				C409.7,847.5,407.8,850.2,406,852.6 M401.9,850c-0.9-0.8-1.9-1.7-2.7-2.6c-1.3-1.6-1.2-1.3,0.2-3c2.7-3.3,4-2.4,7.7-1
				C405.7,845.5,403.9,848.4,401.9,850 M397.1,842.5c-0.2-0.7,0.6-2,1.5-1.5C397.9,841.3,397.3,842.1,397.1,842.5 M377.8,853.9
				c-0.9,0-3.2,0.2-4.1-0.4c-0.9-0.7-0.2-1.4,0.4-2.9c1.1-2.3,3.8-3.5,5.2-6.1c1.3-2.7,1.7-5.9,5-3.4c1,0.8,2.1,1.6,3.1,2.4
				c0.7,0.6-0.9,2.3-1.3,3c-0.8,1.3-3.6,4.1-3.1,5.5c0.9,2.3,5.2,1.2,3.2,4.3c-3.1,4.8-8.8,0.8-11.9-2c3.4,0,6.5,0,9.9-0.2
				C384.2,852.9,379.3,853.9,377.8,853.9 M355.6,852.5c-4.2,0.3-8.9-7.8-11.1-10.7c-1.8-2.3-2.6-5.2,0.9-2.6
				c2.2,1.6,4.6,3.1,6.7,4.8c1.2,0.9,2.7,1.9,4.2,2.4c1.6,0.6,2.4,2.5,3.9,3.3c2.1,1.2,2.9,1.1,0.2,1.3
				C358.6,851.2,357,851.4,355.6,852.5 M398.8,840.2c-0.2-1,1.2-3.8,2.4-2.3C400.3,838.5,399.8,839.6,398.8,840.2 M425.5,847.1
				c-0.8-0.4-2.9-0.9-3.6-1.5c-0.8-0.8-0.1-1.9-0.9-3.1c-0.5-0.8-2-1.3-2.1-2.2c-0.1-0.6,1.3-3.1,1.9-3.4c1.4-0.8,3.3,2.9,4.5,4.3
				C427,843.4,428,845.3,425.5,847.1 M299.3,855.1c5.7-0.1,10.7-1.8,14.8-5.7c2.1-1.9,3.5-4.2,4.6-6.8c0.5-1.3,0.9-2.6,1.1-4
				c0.1-0.7-0.3-3.6,0-3.9v-0.1c12.1,2.9,16.3,16,10.6,26.3c-2.5,4.6-7.5,8.7-12.7,9.7c-2.6,0.5-5.4,0.8-8,0.7
				c-2.3-0.1-4.9-2.6-6.8-3.8c-4.6-3-8.8-6.2-12.7-10.1c-0.7-0.7-5.5-5.1-3.9-6c0.6-0.4,6.6,2.7,7.7,3
				C295.8,854.8,297.5,855.1,299.3,855.1 M359.6,833.9C359.6,834,359.6,833.9,359.6,833.9 M308.8,832.8c1.8,0,2.5-0.3,2.8,1.6
				c0.2,1.3,0.3,2.6,0,4c-0.7,2.7-2.4,5.2-4.8,6.7c-4.5,3-11,2-15.5-0.6c-0.7-0.4-2.7-1.3-3-2c-0.4-0.9,0.7-2.7,1.2-3.8
				c0.8-1.9,2.3-5,4.4-5.1C298.8,833.3,303.8,832.8,308.8,832.8 M281.9,836.1c-1.2-1.8-2.5-3.6-3.5-5.5c1.7,0.6,3.5,1.5,5.3,2.1
				C283,833.8,282.2,835.4,281.9,836.1 M415.6,838.2c-3.2-2.8-7.8-4.3-9.6-8.1c0.5,0.3,0.9,0.8,1.5,1.2c1.1,0.8,1-0.5,2.1-0.7
				c1.3-0.2,3.3,0.9,4.7,1.5c1.2,0.5,4,1.2,4.1,2C418.4,834.9,416.1,837.7,415.6,838.2 M431.5,829.5c0.9-0.4,1.7-1.1,2.5-1.6
				c-0.3,2-1,4-1.7,5.9c-0.9,2.5-2.7,0.5-4.8-0.4c-2-0.9-4.3-1.5-1.8-3.7C427.3,828.4,429.4,829.3,431.5,829.5 M357.5,835.5
				c-1.6-1.1-3.2-2.3-4.8-3.4c-1.1-0.8-5-2.7-2.5-4.2c1.6-1,7.7,4.7,9.4,6.1C358.9,834.4,358.1,835.3,357.5,835.5 M298.6,825.1
				c0.4-0.3,0.7-0.5,1.5-0.1C299.6,825.1,299,825.1,298.6,825.1 M282.8,822.5c2.8-0.7,4.4,1.1,7.1,1.1c-1.7,1.3-1.2,2.1-3.6,1.2
				c-1.6-0.5-3.1-1.3-4.4-2.5C282.2,822.4,282.5,822.4,282.8,822.5 M387,836.2c-0.5-0.4-0.7-1-1.4-1.3c1-1.9,0.8-3.7,2.6-4.7
				c1.7-0.9,2.9-2.7,3.7-4.4c0.6-1.2,1.6-4.4,3.1-4.2c1.3,0.1,3.9,3.2,5.2,3.9c-1.1,1.1-3,0.8-4.2,1.9c-1,1-2.8,3.3-1.1,4.2
				c-0.6,0-3.3-0.3-3.7,0.4c-0.8,1.4,1.6,1.6,2.1,0.6c-1.9,0.4-1.7-1-0.6-0.6c1.1,0.5,0.3,1.4,1.9,1.7c-0.9,2-2.6,3.9-3.9,5.8
				c-0.7-1-2.1-1.9-3.3-2.4c0.6,0,5.8-0.1,5.1-1.5C392.6,835.6,387.6,836.3,387,836.2 M316.4,825.1c-1.8-2.1-3.3-3.8-5.7-5.3
				c-1.1-0.7-2.4-1.3-3.6-1.7c-1.5-0.5-2.8-0.3-2.5-1.8c0.2-0.9,1.8-2.4,2.4-3.3c0.7-1.2,2.7,0.8,3.4,1.4c2.1,1.6,4.5,3.4,6,4.6
				c3.1,2.4,6.6,4.6,9.8,6.9c1.7,1.2,3.4,2.3,5,3.5c2.1,1.5,3.4,1.7,3,4.4C330.2,829.7,322.5,824.6,316.4,825.1 M403.4,821.2
				c-1.6-1.1-4.2-2.4-4.6-4.3c-0.2-1,0.4-1.5,0.6-2.9c0.2-0.9-0.1-2.3,1.6-2.2c1.5,0.1,4.1,3,5.3,3.9
				C407.4,816.5,404.2,820.3,403.4,821.2 M370.2,816.9c-1.6-1.1-3.2-2.3-4.8-3.5c-0.8-0.6-1.5-1.1-2.3-1.7c-1.3-0.9-0.8-1.1-0.1-2.3
				c0.4-0.7,8.2,5.3,9.4,6.1C371.6,816.2,371,817,370.2,816.9 M322.4,810.1c-1.6-0.4-1.2-1.7-2.1-2.6c0.7-0.9,1.6-1.4,2.6-0.5
				c-0.8,1.1,3.1,2.6,4.2,3.3c1.9,1.3,3.7,2.7,5.6,4c1.8,1.3,3.7,2.6,5.4,4c0.5,0.4,2.7,1.6,2.8,2.1c0.1,0.5-1.1,1.6-1.3,2.2
				c-2.7-2.4-6-4.5-9-6.5c-1.5-1-3.1-2.2-4.6-3.2C325.1,812.3,323.3,810,322.4,810.1 M298.8,805.9c1.7,0.9,1.9,1,1,2.6
				c-0.6,1.1-1.7,2.2-2.4,3.3c-0.5,0.8-1.3,3.1-2,3.6c-1,0.8-2.2,0.2-3.5,0.2C293.4,813.2,296.4,806.8,298.8,805.9 M314.8,805.2
				c-1.8-0.9-1.1-3.7,0.7-3.1C317.2,802.5,315.6,804.6,314.8,805.2 M284.9,811.5c-2.8-4.1,1.1-9.8,5.6-10c1.7-0.1,1.1,0.4,0.3,1.6
				c-0.6,0.9-1.3,1.9-1.9,2.8C287.6,807.9,286.4,809.9,284.9,811.5 M335,803.2c-1.5-1.1-3.6-1.9-4.1-3.8
				C332.4,799.7,335.5,801.7,335,803.2 M344.5,795.8c1.5-0.2,4.3,2.8,5.7,3.7c0.9,0.6,1.8,1.6,2.5,2.4c0.8,0.9,1.7,0.4,0.3,2.2
				c-0.1-0.8-4.7-3.2-5.9-4C346.1,799.6,340.1,796.1,344.5,795.8 M306.3,799.1c-2.1-0.8-1.1-3.8,0.5-3.6
				C309.3,795.7,306.8,798.5,306.3,799.1 M408.7,813.4c-1-0.9-2.3-1.5-3.4-2.4c-1.8-1.3-1.5-0.8-0.9-2.5c1-2.9,3.8-2.5,6.5-3.2
				c5.3-1.4,10.4-2.5,15.1-5.6c3.5-2.2,5.5-6.2,8.6-8.4c1.8,11.2,2,21.3,0.5,32.5c-0.2,1.4,0.1,2.4-1.4,2.4
				c-1.2,0.1-2.2-0.1-3.4-0.3c-2.4-0.4-4.8-0.8-7.2-1.2c-1.7-0.2-6.2-1.8-6,0.3c0.2,2.5,3.6,2.8,5.4,3.1c-0.3,0.4-1.2,2-1.5,1.9
				c-1-0.5-1.9-1.2-2.9-1.8c-1.3-0.9-5.3-3-5.5-4.6c-0.2-2.2,1.6,0.2,1.6-1.1c0-0.2-1-0.9-1.1-1.2c-0.2-0.4-0.1-1.2-0.1-1.7
				c0-0.8,0.2-1.9,0.2-2.8c-0.1-0.8,0.8-0.7-0.3-1.2c-0.6-0.3-1.2-0.8-1.5-1.3c0.8,0.2,1.5,0.2,1.7-0.6c-1.7,0-2.6,0-4.1-0.9
				C409.2,813.5,408.8,813.2,408.7,813.4 M322.1,794.4c-2.2-0.6-0.3-2.1,0.4-3.3c1.1,2.9,4.7,6.2,7.4,7.7c0.4,0.2-0.2,0.6-0.4,0.6
				c-0.3,0-0.7-0.6-1-0.8c-0.7-0.4-1.4-1-2.1-1.5C325,796.1,323.6,794.7,322.1,794.4 M382.3,797.9c-1.6-1.1-3.1-2.1-4.6-3.3
				c-0.6-0.4-1.8-1-2.2-1.7c-0.3-0.5-0.5-2.6,0.7-1.8c1.4,0.9,2.7,2.1,4.1,3C381.7,795.1,384.4,796.5,382.3,797.9 M285.7,792.2
				c2-2.6,9.9-2.2,12.9-1c-0.4,0.7-1,2.4-1.9,1.8c-0.9-0.6-2.4-0.8-3.5-1C290.8,791.7,288,791.8,285.7,792.2 M337.7,789.5
				c0-0.4-0.3-0.6,0.1-0.9c0.2,0.1,0.6,0.3,0.8,0.4C338.3,789.3,338,789.4,337.7,789.5 M258.4,818.8c-1.5-2.9-12.1-29.7-10.5-30.3
				c0.2-0.1,4,1.9,4.8,2.1c2,0.2,3.5-0.2,5.2-1.1c-2.1,4.2-1.6,10.5-1.3,15.1c0.1,2.4,0.5,4.8,0.9,7.2
				C257.8,813.7,259,817.3,258.4,818.8 M331.6,789.3c-2.3-1.7-0.4-5.3,2.3-4c2.8,1.4,2.2,3.7,1,6.1
				C334,790.7,332.7,789.3,331.6,789.3 M313.7,788.4c-2.7-1.2-0.6-4.2,1.1-4.2C317.8,784.1,314.9,787.4,313.7,788.4 M448.8,798.2
				c-1.4-4.1-1.7-8.7-2.8-12.9c-0.9-3.6,0.4-1,1.8,0.4c1.6,1.6,3.7,2.6,5.9,1.5C452.2,790.8,450.6,794.8,448.8,798.2 M317.6,780.3
				c1.1-0.8,1.1,0.9,0.6,1.7c-0.9,1.3-1.4,1.3-2.8,0.7C316,781.8,316.2,779.9,317.6,780.3 M332.9,776.2c1.1-1.4,1-2.5,2.6-1.8
				c0.8,0.3,1.8,1.8,2.7,2.4c1.1,0.8,2.2,1.7,3.4,2.4c0.6,0.4,1,1.1,1.3,1.3c0.2,0.2,1.1,0.6,1.3,0.7c4,3.2,8.8,6.1,13,9.2
				c1.1,0.8,2.2,1.6,3.3,2.4c0.6,0.4,3.5,2.4,1.8,2.5c-1.3,0.1-2.2-2.4-3.2-2.8c-1.2-0.4-2.2-1-3.4-1.8c-4.4-3.1-8.8-6.3-12.9-9.6
				c-1.5-1.2-3.2-2.2-4.9-3.1C336.8,777.6,333,776.4,332.9,776.2 M319.8,778.3c-0.9-1.1,1.9-6.3,3-6c1.8,0.4,0,2.9-0.4,3.6
				C321.5,777.2,321,777.9,319.8,778.3 M347.6,772.9c-0.4-0.4-1.5-2.4-0.5-2.6c0.3-0.1,2.4,1.4,2.7,1.6c2.1,1.5,4.2,3,6.2,4.5
				c4.2,3.1,8.6,6.1,12.8,9.2c-0.6,0.3-1.1,0.9-1.4,1.6c-3.4-2.4-6.7-4.8-10.1-7.3c-1.7-1.2-3.4-2.4-5.1-3.7
				C351.2,775.5,348.7,772.6,347.6,772.9 M395.7,793.5c-1.1-3.9-8.5-7.7-11.7-9.9c-1.4-1-2.4-1.2-1.2-2.8c0.9-1.1,1.6-2.3,2.4-3.4
				c1.6-2.3,3.1-4.6,4.6-7c0.7-1.1,1.4-2.9,2.5-2.1c1.1,0.8,2.2,1.6,3.4,2.4c2.3,1.7,4.6,3.2,7,4.7c4.8,3,4.7,10.8,1.7,14.9
				c-1.2,1.6-2.4,3.1-3.5,4.6C399.4,793.8,397.3,793.5,395.7,793.5 M324.9,772.7c-0.9-1.3-1.1-1.4-0.7-2.8c0.2-0.7,1.3-2.5,1.8-2.5
				C329.1,767.2,325.5,772,324.9,772.7 M343.3,769.7c-1.2-0.9-2.6-1.5-3.7-2.6c1.2,0.3,5.1,1.5,4.9,2.6
				C343.9,769.2,343.7,769.7,343.3,769.7 M323.1,754.5c-3.6-3.2-6.5-7.2-7.7-12c2.2,1.5,4.3,3.1,5.8,5.3
				C322,748.9,324.6,754.2,323.1,754.5 M348.2,757.7c-3-1.5,0.3-4.5,1.5-6.1c1.7-2.2,3.2-4.5,4.8-6.8c0.5-0.7,1.4-2.8,2.2-2.9
				c0.8-0.1,2.7,2.1,3.3,2.6c2.1,1.5,4.1,3.4,6.1,4.6c4.6,2.8,8.9,6.5,13.3,9.7c1.1,0.8,2.2,1.6,3.4,2.4c1.8,1.2,2.2,1.1,1.3,3
				c-1.1,2.4-3,4.5-4.6,6.6c-0.9,1.3-3.6,6.3-4.8,6.3c-1.5,0-5.2-4-6.5-4.9c-4.3-3.1-9-6.6-12.8-9.5
				C353.5,761.2,350.5,758.7,348.2,757.7 M409.3,797c4.1-2.6,5.8-10.5,5.1-15c-0.9-6-3.7-9.6-7.8-13.7c-2.7-2.7-6.5-5.5-9.9-7.5
				c3.1-4.4,5.1-9.9,4.2-15.3c-0.2-1.5-0.9-2.3,0-3.6c0.8-1.2,1.1-2,2.4-1.2c2.3,1.5,4.4,3.3,6.3,5.2c7.9,7.6,14.5,16.7,19,26.7
				c1.2,2.6,2.7,4.9,2,7.8c-0.6,2.5-2.1,5.3-3.5,7.4c-3,4.5-8.3,7.1-13.4,8.3C412.2,796.7,410.8,797.2,409.3,797 M276.5,784
				c-0.2-2.7-0.4-5.5-0.1-8.2c0.2-2.8,2.1-4.9,3.7-7.2c3.1-4.6,6.3-9,9.6-13.5c0.8-1.1,1.5-2.2,2.3-3.3c0.4-0.5,1.2-0.9,1.5-1.3
				c0.4-0.6,0.3-1.2,0.6-1.7c1.5-2.2,3-4.5,4.6-6.7c1.7-2.4,3.8-3.6,6.8-3.7c1.8-0.1,1.9,5.3,2.5,7c1.7,5.3,4.3,9.9,8.2,13.9
				c0.5,0.5,3.1,2.1,3.1,2.7c0.1,0.3-1.7,2.7-2.1,3.1c-0.6,0.7-1,0.9-1.5,1.7c-0.4,0.5-0.5,1.3-0.9,1.8c-0.8,0.9-2.2,1.3-3.2,2.3
				c-2.1,2.1-1.8,5-3.5,7.3c-0.8,1.1-1.6,2.2-2.5,3.3c-1.2,1.4-1.1,1.6-3,0.9c-5.2-1.7-11-2.4-16.4-1.3
				C284.4,781.5,277.2,784.5,276.5,784 M399,739.8c-0.7-1.2-1.4-2.3-2.3-3.4C398.3,736.6,400.4,738.5,399,739.8 M369.5,740.6
				c-2.2-1.5-4.4-3.3-6.6-4.8c-2.5-1.8,1.1-4.7,3.1-5.8c5-2.7,11.2,0.1,15.6,2.8c4,2.4,7.7,6,10.2,10c1.2,1.9,2.2,4.6,1.1,6.8
				c-0.9,1.9-2.9,3.6-3.9,5.5c-2.9-2.7-6.7-4.9-9.9-7.3C377.5,746.6,370.9,740.3,369.5,740.6 M355.4,728.4c-0.1-1.3-1-5.9-0.5-6.2
				c0.7-0.5,6.6,0.7,7.2,1.1C360.6,723.9,355.9,728.7,355.4,728.4 M332,761.6c-1.7-1.3-1.5-1.1-1.4-2.9c0.1-1.4,0.6-2.7,0.7-4.1
				c0.2-2.7-0.5-5.3-1.7-7.7c-2.4-4.8-6.7-8.9-11.2-11.8c-1-0.7-3.1-1.4-3.5-2.4c-0.3-0.8,0.3-3.3,0.8-4c1.3-1.7,5.2-2.4,7.3-3
				c5.4-1.4,10.5-3,16-3.5c2-0.2,6.3-1.2,7.2,1c1.1,2.6,0.9,5.7,0.7,8.4c-4.6-0.5-10.5,6-12.4,9.8c-2.3,4.5-3.3,11.3-0.9,16
				C334.5,758.7,333.7,761.5,332,761.6 M263.1,652.1c-10.8,0.1-21.7,2.9-32,5.9c-10.6,3.1-20.6,7.2-31,11
				c-10.3,3.7-20.4,8.3-30.2,13.1c-9.8,4.8-19.5,9.7-29.1,15c-9.5,5.2-18.9,11.1-27.7,17.5c-4.4,3.2-8.8,6.6-12.8,10.3
				c-3.6,3.4-9,7.8-10,13c-2.3,12.2,22.3,6.6,27.9,5.4c2.8-0.6,5.1-1.5,8-1.1c2.7,0.4,5.5,0.8,8.3,1.2c5.4,0.9,10.8,2.2,15.9,4.2
				c10.4,3.9,19.9,8.9,28.6,15.8c8.6,6.8,16.1,15.1,23,23.5c7,8.5,13.2,17.6,19.1,26.9c5.9,9.2,11.2,18.7,16.8,28.2
				c5.6,9.5,11.3,18.6,18.4,27c7.2,8.5,15.3,15.6,24.3,22.2c8.8,6.4,19.2,11.1,29.5,14.4c10.5,3.4,21.2,5.1,32.2,5.4
				c11.1,0.3,22-1.5,32.7-4.4c10.4-2.8,20.9-7.4,29.8-13.5c3-2.1,5.9-4.6,9-6.5c0.3,3.3,4.9,2.4,6.4,0.6c0.7-0.8,1.8-2.7,1.5-3.8
				c-0.3-1-2.4-1.6-2.1-1.9c3.6-3.9,7.5-7.8,10.7-12.1c6.7-9.1,11.7-19.2,15-30.1c1.6-5.4,2.2-10.2,3.1-15.6
				c0.4-2.7,0.6-5.4,0.7-8.1c0.1-2.9,1.3-5.1,2.4-7.7c4.3-10,8.8-20,13.3-30c2.2-5,4.5-10,6.8-15c1.1-2.4,2.2-4.6,3.4-6.8
				c0.6-1.2,1.2-2.4,1.6-3.7c0.5-1.3,0.5-2.9,0.8-3.8c1.3-4.8,4.8-10.7,8.3-14.2c1-1,2-1.9,3-2.8c0.8-0.8,2.8-1.5,3.1-2.2
				c1.4-3.1-2.4-5-4.7-6.1c-1.8-0.8-6.1-2.9-8-1.6c-1.9,1.3,0,6.4-0.3,8.6c-0.7,5-2.6,11.1-5.4,15.4c-0.8,1.2-1.5,1.5-2.2,2.8
				c-0.7,1.1-1.1,2.6-1.6,3.8c-1.1,2.5-1.7,5-2.9,7.4c-2.3,4.9-4.9,9.6-7.1,14.6c-1.1,2.3-6.2,15.5-9.9,9.9c-3-4.6-5.3-9.3-7.6-14.3
				c-1.2-2.5-2.5-5-3.8-7.4c-1.3-2.5-3.2-4.1-4.6-6.4c-2.9-4.7-6.3-9.1-10-13.2c-7.3-8.1-16-15.3-25.7-20.3
				c-9.8-5-20.1-8.7-30.9-10.6c-5.3-0.9-10.9-1.4-16.3-1.5c-1.3,0-2.8,0.2-4.1,0c-1-0.2-2.3-1.1-3.4-1.6c-2.4-1.2-4.8-2.1-7.5-2.4
				c-5.2-0.6-11.1,1.2-15.5,4c-2.3,1.5-4.5,3.3-6.2,5.4c-2,2.2-3.3,3.3-6,4.7c-9.7,5.1-18.3,11.7-25.6,19.8
				c-3.7,4.1-7.1,8.4-10,13.1c-1.5,2.4-2.8,4.8-4.1,7.3c-1.2,2.4-3.4,3.9-4.4,6.7c-1.9,5-3.5,10.6-4.3,15.8
				c-1.1,6.8-9.9,6.1-11.9,0.4c-1.8-5.1-2.4-10.7-4-15.9c-0.9-2.9-2.5-4.4-3.2-7.4c-0.6-2.7-1.3-5.4-1.8-8
				c-2.1-10.4-2.4-22.4-0.2-32.9c2.2-10.7,6.1-21,11.4-30.6c1.3-2.3,2.8-4.6,4.4-6.8c1.6-2.2,4.1-3.7,6.3-5.5
				c4.2-3.5,8.7-6.9,11.8-11.4c2-2.9,3.2-6.4,0.9-9.4C270.9,652.7,266.3,652.1,263.1,652.1"/>
		</g>
	</g>
</g>
<g>
	<defs>
		<rect id="SVGID_21_" x="559.9" y="573.2" width="350.4" height="421"/>
	</defs>
	<clipPath id="SVGID_22_">
		<use xlink:href="#SVGID_21_"  style="overflow:visible;"/>
	</clipPath>
	<g class="st15">
		<defs>
			<rect id="SVGID_23_" x="559.9" y="573.3" width="350.4" height="420.9"/>
		</defs>
		<clipPath id="SVGID_24_">
			<use xlink:href="#SVGID_23_"  style="overflow:visible;"/>
		</clipPath>
		<g class="st16">
			<defs>
				<rect id="SVGID_25_" x="559.9" y="573.3" width="350.4" height="420.9"/>
			</defs>
			<clipPath id="SVGID_26_">
				<use xlink:href="#SVGID_25_"  style="overflow:visible;"/>
			</clipPath>
			<path class="st17" d="M803.2,706.6c-0.1-0.4-0.6-3.6-0.6-3.6s-5.8,1.2-12.9,2.1c-4.1,0.5-8.6,1-12,1.3c-3.6,0.3-6,0.4-6,0.4
				s0.1,0.6,0.2,1c0,0.5,0,1,0,1l31.4-1.4C803.2,707.4,803.3,707,803.2,706.6 M741,708.9l0.2,1.9l19.2-1.2V709l-1.5-0.1l1.7-0.9
				l0.1-0.4L741,708.9z M734.8,854.6c-2.5-0.1-5.1,0.2-5.3,0.1c-0.3-0.2-2.4-1-2.4-1l-13.2,30.8l0.4,35L739,855
				C739,855,736.9,854.6,734.8,854.6 M718.3,850.4l-4.7,0.4l0.3,29l11.6-26.6L718.3,850.4z M712.6,929.4l-2.1,5.2l2.3,1.5
				L712.6,929.4z M712.3,888.2l-3.1,7.1l-1.4,38.1l1.2,0.3l3.6-9.5L712.3,888.2z M712.1,851.1l-1.4,0.1l-1.3,38.9l2.8-6.6
				L712.1,851.1z M697.6,852.1l-0.9-0.3l-1.8,71.7l2.8-6L697.6,852.1z M697.5,928.3l0.1-6.1l-2.3,5.1L697.5,928.3z M832.4,708
				c7.5,0.4,24.5,1.6,34.5,3.1c3.9,0.6,11.4,1.8,19.1,3.4c7.3,1.6,14.9,3.5,19.6,5.4c4.4,1.8,4.7,3.9,4.7,4.6
				c0,2.7-0.6,37.6-0.6,41.5c0,4-0.2,16.2-0.2,17.1c0,0.3-0.2,1.1-0.8,1.6c-1.2,1.1-2.5,1.8-2.5,1.8l0,2.6c0,0-0.9,0.8-1.8,1.1
				c-1.2,0.4-2.5,0.4-2.5,0.4l0,4.7l-10.6,0.7c0,0-0.7,2.7-0.8,3.1c-0.1,0.3-0.4,0.4-1.2,0.4c-0.6,0-7.2,0.5-7.6,0.6
				c-0.2,0.1-2.8,1.3-4.6,3.2c-1.8,2-2.9,4.6-3,5c-0.2,0.8-0.7,0.8-1.6,0.8c0,1.3-1,19.1-1.2,24c-0.2,4.8-3.7,68.1-3.7,68.4
				c0,0.5-0.4,0.5-0.4,0.5l0,5.2l-3.2,0.4l0.1,0.6c0,0,0.9,2.1,1,2.3c0.5,0,2.3,1.2,2.2,3.7c-0.1,2.1-1.4,4.4-3.4,4.5
				c-1.9,0.2-3.8-0.2-4.9-0.9c-1.1-0.7-1.9-2.2-2-3c-0.2-0.8-0.1-2.4-0.1-2.7c-0.8-0.8-2.5-2.5-2.5-2.5l-0.2-2.3l-3.5-1.3l0-5.2
				l-0.3-0.2c0,0-1.3-36-1.5-40.8c-0.2-4.8-1.5-42.3-1.5-42.3s-1.4,0.2-2.8,0.5c-1.8,0.3-3.8,0.8-5.8,2.5c-2.2,1.8-3.5,7-3.5,7
				l-1.3,0.2l0.1,10.3c0,0-18.3,1.8-25.4,2.5c-1.7,0.2-2.7,0.4-2.7,0.4s-0.5,4.5-0.5,4.9c0,0.4-0.2,0.7-0.8,0.8
				c-0.2,0-3.8,0.5-8.2,2c-3.5,1.2-7.5,3.1-11,5.4c-2.4,1.6-4.2,3.3-5.6,5.1c-2,2.5-3,4.9-3.1,5.1c-0.3,0.7-0.8,0.9-1.4,0.8
				c0,1.1-1,17.9-1.2,23c-0.2,5.1-2.8,52.4-3.1,57.9c-0.3,5.5-1.4,27.1-1.4,27.1l-0.5,0.3l-0.1,6.2l-2.6,0.2v2.3
				c0,0.8-0.7,3.3-0.9,4.3c-0.3,0.9-0.6,1.9-0.5,2.2c0,0.3,0,1.7-0.6,1.9c-0.2,0.5-0.4,0.8-1.3,0.8c-0.1,1.1-0.8,2.8-1.5,2.9
				c-0.7,0.2-3.2,0-4.5-0.1c-1.2-0.1-2.7-0.4-3.1-0.7c-0.4-0.4-0.9-1.8-1-3.2c-0.5-0.1-0.8-0.3-0.9-0.8c-0.1-0.4-0.3-1.2-0.1-2
				c0.2-0.8,0.4-1.4,0.5-2.9c0.2-1.5,0.3-5.4,0.3-5.4l-2.3-1l0-6.2l-0.5-0.2c0,0-0.8-21.9-1-27.9c-0.2-6-1.1-30.3-1.3-36.1
				c-0.2-5.8-0.9-24.4-1-30.3c-0.2-5.8-0.5-14-0.5-14s-0.9-0.2-1.3-0.6c-0.4-0.3-0.6-0.9-0.7-1.5c-0.1-0.3-1.7-2.7-2.8-4.1
				c-0.7-0.9-1.2-1.1-1.2-1.1l-26.1,69l-0.1,11.9c0,0,0.8,0.5,1,0.7c0.2,0.2,0.2,0.7,0.2,0.7s0.9,0.4,1.1,0.5
				c0.3,0.1,0.3,0.5,0.3,0.8c0,0.3-0.3,12.1-0.3,12.1l-1,0.1v2.1l-14.9,1.8l-10.1-4.8c0,0-1.7,0.5-2.4,0.9c-0.7,0.5-1.6,1-2.1,1.1
				c-0.5,0.2-4.2,0.1-4.9,0c-0.7-0.1-0.9-0.3-1.5-0.5c-0.5-0.1-1.3,0-1-0.8c0.3-0.8,0.7-1.5,1.5-1.9c0.8-0.5,2.3-1.2,4.6-1.7
				c-0.8-0.5-2.2-1.2-2.2-1.2s-3,0.6-5.1,0.9c-2.1,0.3-3.8,0.7-5.1,0.6c-1.3-0.1-3.5-0.5-4.1-0.7c-0.6-0.2-0.9-0.9-0.6-1.5
				c0.3-0.5,1-1.5,1.8-1.7c0.8-0.2,7.1-0.5,7.1-0.5v-0.8c0,0-2.6,0.3-5.1,0.4c-2.5,0-6.8,0-8.5-0.2c-1.7-0.2-3-0.4-3-1.3
				c0-0.7,0.3-1,1.1-1.5c0.7-0.6,1.6-0.6,2.8-0.7c1.2-0.1,4,0.3,5.2,0.3c1.2,0.1,6.7-0.2,6.7-0.2s0-10.4,0.1-10.7
				c0.1-0.3,0.1-0.5,0.5-0.5c0.4,0,1.2-0.1,1.2-0.1l0.1-0.9c0,0,4.2-1.8,4.5-1.9c0.2-0.1,2.7-0.4,2.7-0.4l-0.9-79.2l-40.3-15.9
				l-3.4,79.1l-0.4,0.2v5.3l-3,0.5l-0.1,2c0,0-1,1.1-1.7,2c-0.6,0.7-0.8,1.3-0.8,1.3s0.1,2-0.7,3.5c-0.3,0.7-1.2,1.2-1.7,1.5
				c-1.6,0.7-3,1-3.9,1.1c-0.9,0.1-2.5-0.1-3.5-1.8c-1.1-1.8-0.9-3.5-0.8-4.2c0.1-0.8,0.4-1.9,1.8-2.6c0.2-1.4,0.2-2.1,0.2-2.1
				l1-0.6l-2.9-1.4l-0.1-5.4l-0.3-0.2c0,0-1.1-26.4-1.4-32.3c-0.3-5.9-1.8-40.4-2.1-46c-0.3-5.6-0.4-9.5-0.4-9.5
				s-29.3-11.5-33.2-13.1c-2.5-1-12.4-4.9-19-7.6c-3.5-1.4-6.1-2.6-6.1-2.6l0-9l-1.2-0.3c0,0-0.1-13,0-15.3c0.1-2.3,0.9-4.8,3.4-6.2
				c2.4-1.5,3.2-1.2,5.4-1.4c2.2-0.2,7.8-0.8,10.5-1.1c1.5-0.2,5.3-1.3,8.9-4.5c2.9-2.6,4.9-7.1,5.2-8.9c0.8-3.8,1.5-8,1.5-11.4
				c0-3.4-0.4-5.3-0.7-6c-0.3-0.7-1.3-2.9-1.4-3.5c0-0.5,0.3-8.3,0.3-8.6c0.1-0.3,0.3-0.5,0.7-0.6c0.4,0,31.3-2.1,35.8-2.5
				c4.5-0.3,19.6-1.4,19.6-1.4s1.2-2.3,2.9-5.8c1.7-3.5,4.1-10.4,4.8-13c0.7-2.6,0.8-4.1,1.3-4.9c0.5-0.8,1.6-2.6,3.3-4.1
				c1.7-1.5,2.7-2.3,3.6-2.6c0.9-0.3,1.7-0.3,2.3,0.1c0.6,0.4,2.8,1.5,6.1,2.2c2.9,0.6,6.6,0.6,6.6,0.6s8.5-8.4,11-10.9
				c2.5-2.5,10.5-10.5,13.2-13.1c2.6-2.6,10.4-10.2,12.4-12.3c2-2.1,14.7-14.5,17.5-17.3c2.7-2.7,18.9-18.8,21.3-21.2
				c2.4-2.4,15.2-15,17.8-17.6c2.5-2.6,15.3-15.1,17.7-17.5c2.5-2.4,4.7-4.8,5.1-5.1c0.4-0.3,0.9-0.3,2-0.3c1.1,0,26.7-0.4,30.7-0.4
				c4,0,47.4-0.6,47.9-0.6c0.5,0,0.6,0.1,0.7,0.6c0.1,0.5,0.4,2.9,0.4,3.2c0,0.3-0.6,0.8-2.1,2.1c-1.2,1.1-31.4,28.5-31.4,28.5
				s0.9,0.7,2.6,1.9c1.7,1.2,6.4,4.1,12.2,5.7c6.2,1.7,18.2,4.5,22.5,5.9c2.4,0.8,7,2.3,10.9,4.4c2.9,1.6,5.5,3.7,6.3,4.8
				c2,2.6,2.5,4.3,3,6.3c0.6,2.2,1.5,5.6,0.3,8.9c-0.2,0.7-0.8,2.1-1.9,4c-1.3,2.3-3.1,4.7-5.2,7c-5.9,6.5-13.3,12.2-13.3,12.2
				s-0.3,0.5-0.6,0.7c-0.3,0.2-0.6,0.2-0.6,0.2s-10.9,8.8-25.1,15.8c-10.9,5.3-23.5,9.9-32.6,12.6c-7.2,2.1-12.2,3.3-12.2,3.3
				l1.9,6.2C812.4,707.5,824.9,707.6,832.4,708"/>
		</g>
	</g>
</g>
</svg>
