<?xml version="1.0" encoding="utf-8"?>
<!-- Generator: Adobe Illustrator 21.1.0, SVG Export Plug-In . SVG Version: 6.00 Build 0)  -->
<svg version="1.1" xmlns="http://www.w3.org/2000/svg" xmlns:xlink="http://www.w3.org/1999/xlink" x="0px" y="0px"
	 viewBox="0 0 436.2 435.5" style="enable-background:new 0 0 436.2 435.5;" xml:space="preserve">
<style type="text/css">
	.st0{fill:url(#SVGID_1_);}
	.st1{fill:url(#SVGID_2_);}
	.st2{fill:url(#SVGID_3_);}
	.st3{fill:url(#SVGID_4_);}
</style>
<g id="Layer_1">
	<g>
		<g>
			<g>
				<g>
					
						<linearGradient id="SVGID_1_" gradientUnits="userSpaceOnUse" x1="-78.1744" y1="-90.5026" x2="393.356" y2="280.9925" gradientTransform="matrix(1 0 0 1 23.4974 92.9954)">
						<stop  offset="0" style="stop-color:#CA781F"/>
						<stop  offset="0.5405" style="stop-color:#E4BE8B"/>
						<stop  offset="1" style="stop-color:#CA781F"/>
					</linearGradient>
					<path class="st0" d="M330.3,111.8c-2,0-4,0.1-6.1,0.2c0.1-2,0.2-4,0.2-6.1C324.4,47.5,276.9,0,218.5,0
						c-58.4,0-105.9,47.5-105.9,105.9c0,2,0.1,4,0.2,6.1c-2-0.1-4-0.2-6.1-0.2c-58.4,0-105.9,47.5-105.9,105.9
						s47.5,105.9,105.9,105.9c2,0,4-0.1,6.1-0.2c-0.1,2-0.2,4-0.2,6.1c0,58.4,47.5,105.9,105.9,105.9c58.4,0,105.9-47.5,105.9-105.9
						c0-2-0.1-4-0.2-6.1c2,0.1,4,0.2,6.1,0.2c58.4,0,105.9-47.5,105.9-105.9S388.7,111.8,330.3,111.8z M218.5,12.2
						c51.7,0,93.7,42,93.7,93.7c0,0.7,0,1.4-0.1,2L220,15.8l-95.1,95.1c-0.1-1.6-0.1-3.3-0.1-4.9C124.8,54.3,166.8,12.2,218.5,12.2z
						 M114.2,311.1c-2.5,0.2-5,0.3-7.5,0.3c-51.7,0-93.7-42-93.7-93.7S55,124,106.7,124c1.6,0,3.3,0,4.9,0.1l-92.1,92.1l94.7,94.7
						C114.2,311,114.2,311.1,114.2,311.1z M218.5,423.2c-51.7,0-93.7-42-93.7-93.7c0-2.5,0.1-5,0.3-7.5c0,0,0.1,0,0.1,0l94.7,94.7
						l92.1-92.1c0.1,1.6,0.1,3.3,0.1,4.9C312.2,381.2,270.2,423.2,218.5,423.2z M322.3,308.2l-2.6,2.6l-8,8l-2.6,2.6l-89,89
						l-89.5-89.5l-4.7-4.7l-5.8-5.8l-4.7-4.7l-89.5-89.5l89-89l2.6-2.6l8-8l2.6-2.6L220,22.1l91.5,91.5l0.4,0.4l10.5,10.5l0.4,0.4
						l91.5,91.5L322.3,308.2z M330.3,311.4c-1.6,0-3.3,0-4.9-0.1l95.1-95.1l-92.2-92.2c0.7,0,1.3-0.1,2-0.1
						c51.7,0,93.7,42,93.7,93.7S382,311.4,330.3,311.4z"/>
				</g>
				<g>
					
						<linearGradient id="SVGID_2_" gradientUnits="userSpaceOnUse" x1="-78.1744" y1="-90.5026" x2="393.356" y2="280.9925" gradientTransform="matrix(1 0 0 1 23.4974 92.9954)">
						<stop  offset="0" style="stop-color:#CA781F"/>
						<stop  offset="0.5405" style="stop-color:#E4BE8B"/>
						<stop  offset="1" style="stop-color:#CA781F"/>
					</linearGradient>
					<path class="st1" d="M330.3,111.8c-2,0-4,0.1-6.1,0.2c0.1-2,0.2-4,0.2-6.1C324.4,47.5,276.9,0,218.5,0
						c-58.4,0-105.9,47.5-105.9,105.9c0,2,0.1,4,0.2,6.1c-2-0.1-4-0.2-6.1-0.2c-58.4,0-105.9,47.5-105.9,105.9
						s47.5,105.9,105.9,105.9c2,0,4-0.1,6.1-0.2c-0.1,2-0.2,4-0.2,6.1c0,58.4,47.5,105.9,105.9,105.9c58.4,0,105.9-47.5,105.9-105.9
						c0-2-0.1-4-0.2-6.1c2,0.1,4,0.2,6.1,0.2c58.4,0,105.9-47.5,105.9-105.9S388.7,111.8,330.3,111.8z M218.5,12.2
						c51.7,0,93.7,42,93.7,93.7c0,0.7,0,1.4-0.1,2L220,15.8l-95.1,95.1c-0.1-1.6-0.1-3.3-0.1-4.9C124.8,54.3,166.8,12.2,218.5,12.2z
						 M114.2,311.1c-2.5,0.2-5,0.3-7.5,0.3c-51.7,0-93.7-42-93.7-93.7S55,124,106.7,124c1.6,0,3.3,0,4.9,0.1l-92.1,92.1l94.7,94.7
						C114.2,311,114.2,311.1,114.2,311.1z M218.5,423.2c-51.7,0-93.7-42-93.7-93.7c0-2.5,0.1-5,0.3-7.5c0,0,0.1,0,0.1,0l94.7,94.7
						l92.1-92.1c0.1,1.6,0.1,3.3,0.1,4.9C312.2,381.2,270.2,423.2,218.5,423.2z M322.3,308.2l-2.6,2.6l-8,8l-2.6,2.6l-89,89
						l-89.5-89.5l-4.7-4.7l-5.8-5.8l-4.7-4.7l-89.5-89.5l89-89l2.6-2.6l8-8l2.6-2.6L220,22.1l91.5,91.5l0.4,0.4l10.5,10.5l0.4,0.4
						l91.5,91.5L322.3,308.2z M330.3,311.4c-1.6,0-3.3,0-4.9-0.1l95.1-95.1l-92.2-92.2c0.7,0,1.3-0.1,2-0.1
						c51.7,0,93.7,42,93.7,93.7S382,311.4,330.3,311.4z"/>
				</g>
			</g>
			<g>
				<g>
					
						<linearGradient id="SVGID_3_" gradientUnits="userSpaceOnUse" x1="-78.1744" y1="-90.5026" x2="393.356" y2="280.9925" gradientTransform="matrix(1 0 0 1 23.4974 92.9954)">
						<stop  offset="0" style="stop-color:#CA781F"/>
						<stop  offset="0.5405" style="stop-color:#E4BE8B"/>
						<stop  offset="1" style="stop-color:#CA781F"/>
					</linearGradient>
					<path class="st2" d="M315.9,147.6l-9.4-9.4l-8.4-8.4l-9.4-9.4L220,51.7l-69.6,69.6l-9.3,9.3l-9.7,9.7l-9.3,9.3l-66.7,66.7
						l67.6,67.6l9.2,9.2l11,11l9.2,9.2l67.6,67.6l66.7-66.7l9.3-9.3l9.7-9.7l9.3-9.3l69.6-69.6L315.9,147.6z M293.6,131.5l11.1,11.1
						c-11.7,27.4-36.2,48.1-65.9,54.7C245.5,167.7,266.2,143.3,293.6,131.5z M220,57.9l64.4,64.4c-30.1,14.6-52.3,43-58.3,77
						c-2.5,0.2-5,0.3-7.5,0.3c-2.5,0-5-0.1-7.5-0.3c-5.9-33.2-27.2-61.2-56.4-76L220,57.9z M224.6,223.8c-2-0.1-4-0.2-6.1-0.2
						s-4,0.1-6.1,0.2c0.1-2,0.2-4,0.2-6.1s-0.1-4-0.2-6.1c2,0.1,4,0.2,6.1,0.2s4-0.1,6.1-0.2c-0.1,2-0.2,4-0.2,6.1
						S224.5,221.8,224.6,223.8z M145.5,132.4c26.4,12,46.3,36,52.7,64.9c-29-6.4-52.9-26.3-64.9-52.7L145.5,132.4z M125.1,279.7
						l-63.4-63.4l62.4-62.4c14.8,29.1,42.8,50.5,76,56.4c0.2,2.5,0.3,5,0.3,7.5c0,2.5-0.1,5-0.3,7.5
						C167.6,231,140.2,251.5,125.1,279.7z M147.5,302.1l-13.3-13.3c12.3-25.4,35.8-44.4,64-50.7
						C191.9,266.3,172.9,289.8,147.5,302.1z M220,374.6l-63.4-63.4c28.2-15.1,48.7-42.5,54.4-75c2.5-0.2,5-0.3,7.5-0.3
						c2.5,0,5,0.1,7.5,0.3c5.9,33.2,27.2,61.2,56.4,76L220,374.6z M291.6,303c-26.4-12-46.3-36-52.7-64.9
						c29,6.4,52.9,26.3,64.9,52.7L291.6,303z M312.9,281.6c-14.8-29.1-42.8-50.5-76-56.4c-0.2-2.5-0.3-5-0.3-7.5
						c0-2.5,0.1-5,0.3-7.5c34-6,62.4-28.2,77-58.3l64.4,64.4L312.9,281.6z"/>
				</g>
				<g>
					
						<linearGradient id="SVGID_4_" gradientUnits="userSpaceOnUse" x1="-78.1744" y1="-90.5026" x2="393.356" y2="280.9925" gradientTransform="matrix(1 0 0 1 23.4974 92.9954)">
						<stop  offset="0" style="stop-color:#CA781F"/>
						<stop  offset="0.5405" style="stop-color:#E4BE8B"/>
						<stop  offset="1" style="stop-color:#CA781F"/>
					</linearGradient>
					<path class="st3" d="M315.9,147.6l-9.4-9.4l-8.4-8.4l-9.4-9.4L220,51.7l-69.6,69.6l-9.3,9.3l-9.7,9.7l-9.3,9.3l-66.7,66.7
						l67.6,67.6l9.2,9.2l11,11l9.2,9.2l67.6,67.6l66.7-66.7l9.3-9.3l9.7-9.7l9.3-9.3l69.6-69.6L315.9,147.6z M293.6,131.5l11.1,11.1
						c-11.7,27.4-36.2,48.1-65.9,54.7C245.5,167.7,266.2,143.3,293.6,131.5z M220,57.9l64.4,64.4c-30.1,14.6-52.3,43-58.3,77
						c-2.5,0.2-5,0.3-7.5,0.3c-2.5,0-5-0.1-7.5-0.3c-5.9-33.2-27.2-61.2-56.4-76L220,57.9z M224.6,223.8c-2-0.1-4-0.2-6.1-0.2
						s-4,0.1-6.1,0.2c0.1-2,0.2-4,0.2-6.1s-0.1-4-0.2-6.1c2,0.1,4,0.2,6.1,0.2s4-0.1,6.1-0.2c-0.1,2-0.2,4-0.2,6.1
						S224.5,221.8,224.6,223.8z M145.5,132.4c26.4,12,46.3,36,52.7,64.9c-29-6.4-52.9-26.3-64.9-52.7L145.5,132.4z M125.1,279.7
						l-63.4-63.4l62.4-62.4c14.8,29.1,42.8,50.5,76,56.4c0.2,2.5,0.3,5,0.3,7.5c0,2.5-0.1,5-0.3,7.5
						C167.6,231,140.2,251.5,125.1,279.7z M147.5,302.1l-13.3-13.3c12.3-25.4,35.8-44.4,64-50.7
						C191.9,266.3,172.9,289.8,147.5,302.1z M220,374.6l-63.4-63.4c28.2-15.1,48.7-42.5,54.4-75c2.5-0.2,5-0.3,7.5-0.3
						c2.5,0,5,0.1,7.5,0.3c5.9,33.2,27.2,61.2,56.4,76L220,374.6z M291.6,303c-26.4-12-46.3-36-52.7-64.9
						c29,6.4,52.9,26.3,64.9,52.7L291.6,303z M312.9,281.6c-14.8-29.1-42.8-50.5-76-56.4c-0.2-2.5-0.3-5-0.3-7.5
						c0-2.5,0.1-5,0.3-7.5c34-6,62.4-28.2,77-58.3l64.4,64.4L312.9,281.6z"/>
				</g>
			</g>
		</g>
	</g>
</g>
<g id="text">
</g>
</svg>
